<svg width="239" height="57" viewBox="0 0 239 57" fill="none" xmlns="http://www.w3.org/2000/svg">
<path d="M0.5 0.835419C1.93286 1.75436 4.07741 3.05866 6.76758 4.45684C11.218 6.76901 13.6282 7.51504 15.8819 8.58219C20.4841 10.761 24.8207 14.6689 27.2736 18.7449C32.9671 28.206 31.2733 43.1858 24.5218 48.4722C22.4626 50.0828 18.5911 51.8466 14.022 53.9265C11.8633 54.9097 10.0508 55.6557 8.803 56.1498C8.8979 55.5865 9.04972 54.7022 9.23476 53.6202C9.57637 51.56 9.79937 50.1272 9.84207 49.8654C10.2359 47.4198 11.0519 42.3311 13.9319 38.932C16.9684 35.3451 21.49 34.5942 23.8006 34.4163C20.7641 34.3521 12.3235 33.7296 7.32744 27.3414C4.40004 23.5965 3.342 18.3694 3.11426 17.327C2.50695 14.4861 2.62082 12.8706 1.83797 7.84605C1.36351 4.83232 0.851098 2.39169 0.5 0.835419Z" fill="#325CF4"/>
<path d="M64.4948 0.845093C63.0619 1.76403 60.9174 3.06834 58.2272 4.46651C53.7768 6.77869 51.3666 7.51977 49.1129 8.59187C44.5107 10.7706 40.1741 14.6737 37.7212 18.7496C32.0277 28.2108 33.7167 43.1905 40.4683 48.4769C42.5274 50.0875 46.3942 51.8513 50.9633 53.9362C53.122 54.9194 54.9345 55.6654 56.1823 56.1644C56.0874 55.6012 55.9356 54.7168 55.7553 53.6348C55.4137 51.5746 55.1907 50.1419 55.148 49.88C54.7542 47.4344 53.9381 42.3457 51.0629 38.9466C48.0311 35.3597 43.5048 34.6038 41.1942 34.426C44.2307 34.3618 52.6761 33.7442 57.6674 27.3561C60.5948 23.6111 61.6575 18.389 61.8805 17.3416C62.4878 14.5008 62.374 12.8852 63.1616 7.86067C63.6265 4.84199 64.139 2.40136 64.4948 0.845093Z" fill="#48BDFF"/>
<path d="M79.3975 46.7825C80.7497 47.0592 82.3012 47.1975 84.0092 47.1975C89.9637 47.1975 93.5221 44.2925 93.5221 39.426C93.5221 34.3224 91.1214 32.1733 84.9582 31.7632C82.064 31.5705 80.5979 31.1704 80.5979 29.5449C80.5979 28.29 81.3428 26.793 84.8822 26.793C87.8571 26.793 90.2816 27.5638 91.9327 29.036V27.3859C91.9327 24.6538 90.0016 22.3416 87.4348 22.0057C86.5523 21.8871 85.6414 21.8327 84.7257 21.8327C78.8519 21.8327 75.061 24.9453 75.061 29.7623C75.061 34.4064 77.196 36.2591 83.2264 36.8372C86.3863 37.1385 87.9852 37.6178 87.9852 39.426C87.9852 41.2886 86.5428 42.2322 83.7008 42.2322C80.057 42.2322 77.2245 41.2392 75.265 39.2827V41.4665C75.265 44.0602 77.0062 46.2934 79.3975 46.7825Z" fill="#113BB3"/>
<path d="M190.155 40.0732V32.1683C190.155 25.6024 186.876 21.8327 181.154 21.8327C178.393 21.8327 176.248 22.7368 174.778 24.5253L174.664 24.6637H174V15.2618C174 12.4062 171.77 10.0841 169.027 10.0841H168.05V46.6639H169.027C171.77 46.6639 174 44.3418 174 41.4862V33.7147C174 29.6487 176.002 27.2229 179.361 27.2229C182.44 27.2229 184.21 29.3374 184.21 33.0181V46.6491C187.522 46.4465 190.155 43.5711 190.155 40.0732Z" fill="#113BB3"/>
<path d="M118.327 32.1683C118.327 25.6024 115.048 21.8327 109.326 21.8327C106.565 21.8327 104.42 22.7368 102.95 24.5253L102.836 24.6637H102.171V15.2618C102.171 12.4062 99.9415 10.0841 97.1991 10.0841H96.2217V46.6639H97.1991C99.9415 46.6639 102.171 44.3418 102.171 41.4862V33.7147C102.171 29.6487 104.174 27.2229 107.533 27.2229C110.612 27.2229 112.382 29.3374 112.382 33.0181V46.6491C115.693 46.4416 118.327 43.5662 118.327 40.0683V32.1683Z" fill="#113BB3"/>
<path d="M145.793 22.3663H143.734C143.378 22.3762 142.472 22.475 141.675 23.2062C140.906 23.9127 140.816 24.8168 140.778 25.1972L140.769 25.3059L140.636 26.3632L140.066 25.4739C138.581 23.1568 135.801 21.8278 132.437 21.8278C125.828 21.8278 121.026 27.1636 121.026 34.5102C121.026 39.0901 122.877 43.0079 126.108 45.2559C127.451 46.1896 129.638 47.2765 132.423 47.1926C134.752 47.1086 136.574 45.1373 136.574 42.7115V41.9605C135.659 42.3903 134.648 42.6028 133.566 42.6028C129.291 42.6028 126.307 39.2729 126.307 34.5052C126.307 29.7376 129.291 26.4077 133.566 26.4077C137.798 26.4077 140.759 29.7277 140.769 34.4805V46.6392C143.573 46.4317 145.793 43.9911 145.793 41.0218V22.3663Z" fill="#113BB3"/>
<path d="M161.54 46.4021C163.813 45.409 165.27 43.2846 165.421 40.7847C165.094 41.0119 164.743 41.1997 164.378 41.3578C163.656 41.6641 162.935 41.8123 162.181 41.8123C159.851 41.8123 158.461 40.2659 158.461 37.6721V27.4946H160.079C162.878 27.4946 165.175 25.2318 165.374 22.3712H158.466V10.0841H156.056C154.219 10.0841 152.725 11.6404 152.725 13.5524V22.3663H152.341C150.234 22.3663 148.521 24.1498 148.521 26.3434V27.4896H152.521V37.934C152.454 38.9715 152.426 42.4694 154.865 45.0335L154.941 45.1126C156.696 46.9159 159.23 47.4099 161.54 46.4021Z" fill="#113BB3"/>
<path d="M214.381 33.448C214.381 26.0668 210.613 21.8327 204.047 21.8327C201.485 21.8327 199.127 22.6084 197.229 24.0807C194.34 26.3138 192.75 29.9253 192.627 34.5299C192.584 36.0911 192.489 39.7373 194.79 42.7263C197.879 46.7331 203.44 47.1926 205.689 47.2024H205.746C209.01 47.1926 211.672 44.2727 211.809 40.6315C210.523 41.501 208.384 42.5534 205.67 42.4546C202.965 42.3558 200.593 41.3281 198.999 39.5594C198.671 39.1987 197.908 38.349 197.428 36.9903C196.745 35.0586 196.925 32.8156 197.926 30.6813C198.154 30.202 198.752 28.9175 200.085 27.8355C200.574 27.4353 202.064 26.2199 204.242 26.2199C207.273 26.2199 208.981 27.8701 209.461 31.2593L209.527 31.7188H201.153C200.835 31.7188 200.574 31.9905 200.574 32.3215V32.445C200.574 34.5843 202.244 36.3234 204.298 36.3234H212.312C213.455 36.3234 214.381 35.355 214.381 34.1693V33.448Z" fill="#113BB3"/>
<path d="M238.606 33.448C238.606 26.0668 234.839 21.8327 228.273 21.8327C225.711 21.8327 223.353 22.6084 221.455 24.0807C218.565 26.3138 216.976 29.9253 216.853 34.5299C216.81 36.0911 216.715 39.7373 219.016 42.7263C222.105 46.7331 227.665 47.1926 229.914 47.2024H229.971C233.236 47.1926 235.897 44.2727 236.035 40.6315C234.749 41.501 232.605 42.5534 229.895 42.4546C227.191 42.3558 224.819 41.3281 223.225 39.5594C222.897 39.1987 222.133 38.349 221.654 36.9903C220.971 35.0586 221.146 32.8156 222.152 30.6813C222.38 30.1971 222.978 28.9175 224.311 27.8355C224.8 27.4353 226.29 26.2199 228.463 26.2199C231.494 26.2199 233.202 27.8701 233.682 31.2593L233.748 31.7188H225.374C225.056 31.7188 224.795 31.9905 224.795 32.3215V32.445C224.795 34.5843 226.465 36.3234 228.519 36.3234H236.533C237.677 36.3234 238.602 35.355 238.602 34.1693V33.448H238.606Z" fill="#113BB3"/>
</svg>
