<svg width="160" height="160" viewBox="0 0 160 160" fill="none" xmlns="http://www.w3.org/2000/svg">
<circle cx="80" cy="80" r="80" fill="#325CF4"/>
<g clip-path="url(#clip0_997_544)">
<path d="M88.649 89.2061H71.2849V102.353H88.649V89.2061Z" fill="#EFBFA5"/>
<g style="mix-blend-mode:multiply">
<path d="M76.1629 99.2809C78.9795 99.1105 81.6654 98.0258 83.8182 96.1894C85.5477 94.7572 86.9761 92.992 88.0197 90.9972C88.2279 90.5971 88.4597 90.1493 88.6679 89.6729V89.1966H71.2849V99.0332C72.9006 99.2591 74.5328 99.342 76.1629 99.2809Z" fill="#DADADA"/>
</g>
<path d="M79.3234 33.6733C67.5329 33.9258 56.3479 43.3051 58.1127 59.2438C59.1773 68.8755 60.0053 70.3046 62.8441 81.3654C64.8123 89.0156 75.3065 93.0503 79.3045 93.3123C83.3025 93.0503 93.7967 89.0251 95.7649 81.3654C98.6037 70.3046 99.4506 68.8755 100.52 59.2438C102.299 43.3051 91.1187 33.9258 79.3234 33.6733Z" fill="#EFBFA5"/>
<path d="M99.1478 63.5404L97.9082 73.0674C102.772 75.2253 103.534 64.0168 103.534 64.0168C102.408 61.2063 99.1478 63.5404 99.1478 63.5404Z" fill="#EFBFA5"/>
<path d="M54.9474 64.0073C54.9474 64.0073 55.7092 75.2396 60.573 73.0579L59.3382 63.5309C59.3382 63.5309 56.0735 61.2063 54.9474 64.0073Z" fill="#EFBFA5"/>
<path d="M88.6489 98.5378L111.695 105.04C111.695 105.04 119.559 106.345 121.565 114.005L123.466 121.69C124.246 124.843 121.86 127.89 118.612 127.89H41.3897C38.1413 127.89 35.7553 124.841 36.5364 121.688L38.4397 114.005C40.4458 106.345 48.3093 105.04 48.3093 105.04L71.2848 98.5378H88.6489Z" fill="#EFBFA5"/>
<path d="M88.6489 98.5378L111.695 105.04C111.695 105.04 119.559 106.345 121.565 114.005L123.466 121.69C124.246 124.843 121.86 127.89 118.612 127.89H41.3897C38.1413 127.89 35.7553 124.841 36.5364 121.688L38.4397 114.005C40.4458 106.345 48.3093 105.04 48.3093 105.04L71.2848 98.5378L80 116.711L88.6489 98.5378Z" fill="#113BB3"/>
<path d="M67.8735 127.89H41.3897C38.1413 127.89 35.7553 124.841 36.5364 121.688L38.4397 114.005C40.4458 106.345 48.3093 105.04 48.3093 105.04L68.6021 99.3238L67.8735 127.89Z" fill="white"/>
<path d="M92.6422 99.662L111.695 105.04C111.695 105.04 119.559 106.345 121.565 114.005L123.773 122.93C124.397 125.452 122.488 127.89 119.89 127.89H92.1596L92.6422 99.662Z" fill="white"/>
<g style="mix-blend-mode:multiply">
<path d="M62.1769 112.361C62.1769 112.361 69.7471 106.793 76.9577 110.575C76.9577 110.575 72.6427 99.7906 62.1769 112.361Z" fill="#B2B2B2"/>
</g>
<path d="M77.5823 111.671C77.5823 111.671 74.0527 102.72 62.1722 112.361L66.4305 99.9145L71.37 98.5378L77.5823 111.671Z" fill="#113BB3"/>
<g style="mix-blend-mode:multiply">
<path d="M97.8372 112.361C97.8372 112.361 88.6489 105.931 82.7537 110.932C82.7537 110.932 87.3667 99.7906 97.8372 112.361Z" fill="#B2B2B2"/>
</g>
<path d="M82.7537 110.932C82.7537 110.932 85.9568 102.72 97.8372 112.362L93.6074 99.9288L88.6537 98.5331L82.7537 110.932Z" fill="#113BB3"/>
<g style="mix-blend-mode:multiply">
<path d="M66.6197 42.0571C66.6197 42.0571 64.1168 51.5317 81.5093 56.5238C81.5093 56.5238 94.918 59.1819 100.435 55.6712C100.425 55.6712 95.2918 34.1164 66.6197 42.0571Z" fill="#C6C6C6"/>
</g>
<path d="M100.719 33.6734C94.7098 26.1709 72.2642 28.2716 72.2642 28.2716C59.5889 30.6152 57.843 41.133 57.843 41.133C57.843 41.133 56.8589 53.1608 58.5385 62.8783L59.8397 67.7752L60.7859 68.1468V61.9542C60.4737 54.385 63.1516 49.9216 63.1516 49.9216C63.9761 48.3063 65.0673 46.8437 66.3784 45.5964C66.421 45.6821 66.4588 45.7679 66.5061 45.8536C67.091 46.9566 67.8592 47.9506 68.7772 48.7927C69.257 49.2403 69.7642 49.6571 70.296 50.0407L71.1382 50.5742L71.5687 50.8315L72.0418 51.0553L72.9503 51.4983L73.8965 51.8651C74.5275 52.106 75.1702 52.3143 75.8222 52.4892C76.4657 52.6797 77.1328 52.7797 77.781 52.9274C78.4292 53.0751 79.0963 53.1179 79.7445 53.218C80.3927 53.318 81.0456 53.3275 81.6844 53.3752C82.3231 53.4228 82.9571 53.4228 83.5769 53.4276C84.8165 53.4657 86.0136 53.3656 87.1396 53.3037H87.3336C90.8444 53.3132 94.3395 52.8323 97.719 51.8747C97.719 51.8747 98.2914 51.9366 98.8403 60.7776V66.9702L99.7298 66.9416C99.7298 66.9416 100.799 64.1549 101.078 63.1975C103.581 54.6232 103.326 48.7784 103.557 43.8482C103.737 40.2359 102.74 36.6633 100.719 33.6734ZM72.2548 49.5406L71.8573 49.3119L71.0766 48.8356C70.7691 48.6164 70.4568 48.4068 70.1588 48.183C71.0299 48.7882 71.9404 49.3341 72.884 49.8168L72.6711 49.712L72.2548 49.5406Z" fill="black"/>
<path d="M69.8465 57.5575C65.6876 57.5337 61.4956 57.3432 61.7984 63.7262C61.9688 67.4894 64.6373 70.7953 68.763 71.1335C72.8888 71.4717 76.2433 68.7279 77.535 64.9933C78.3062 61.6636 80.1325 57.6433 69.8465 57.5575ZM76.4704 64.9028C75.3538 68.1277 72.4724 70.5094 68.9002 70.2189C65.328 69.9283 63.0428 67.0607 62.915 63.8263C62.6454 58.3006 66.2506 58.4578 69.8418 58.4864C78.7225 58.5578 77.1422 62.0304 76.4799 64.9028H76.4704Z" fill="#1D1D1B"/>
<path d="M82.1291 65.3887C83.4917 69.0995 86.8605 71.7908 91.0193 71.3764C95.1782 70.962 97.7379 67.6037 97.8372 63.8358C98.0028 57.4289 93.8298 57.6909 89.6709 57.8052C79.3896 58.091 81.2916 62.0781 82.1291 65.3887ZM89.6993 58.7198C93.2904 58.6198 96.8957 58.3959 96.749 63.9263C96.6638 67.175 94.4354 70.076 90.8632 70.4332C87.291 70.7905 84.3623 68.4897 83.1842 65.2839C82.465 62.421 80.8185 58.9627 89.6945 58.7341L89.6993 58.7198Z" fill="#1D1D1B"/>
<path d="M77.9702 61.9161C77.9702 61.9161 80.1845 60.4537 82.271 61.9685C82.271 61.9685 81.7979 60.5394 82.7016 59.5867C81.0441 58.9095 79.1937 58.8874 77.5208 59.5248C77.5208 59.5248 78.1074 60.9348 77.9702 61.9161Z" fill="#1D1D1B"/>
<path d="M63.9891 58.3292L58.1127 59.2438L58.5386 62.8783L62.3993 64.9314C62.3993 64.9314 61.7322 60.9586 63.9891 58.3292Z" fill="#1D1D1B"/>
<path d="M96.1292 58.8293L101.764 60.5109L100.884 63.7262L97.5723 65.4935C97.5723 65.4935 98.3151 61.5112 96.1292 58.8293Z" fill="#1D1D1B"/>
<path opacity="0.2" d="M89.6946 58.7341C93.2857 58.634 96.891 58.4101 96.7443 63.9406C96.6591 67.1893 94.4307 70.0902 90.8585 70.4475C87.2863 70.8048 84.3623 68.4897 83.1842 65.2839C82.4651 62.421 80.8185 58.9627 89.6946 58.7341Z" fill="white"/>
<path opacity="0.2" d="M76.4799 64.8695C75.3633 68.0943 72.4819 70.4761 68.9097 70.1855C67.2998 70.0614 65.7936 69.3377 64.6852 68.1557C63.5768 66.9737 62.9457 65.4182 62.9151 63.7929C62.6643 58.2673 66.2696 58.4197 69.8607 58.453C78.7226 58.5245 77.147 61.9971 76.4799 64.8695Z" fill="white"/>
<path d="M71.3037 93.8267H69.8512C69.4065 93.8267 66.2459 93.8267 63.1421 96.7991C58.9785 100.772 55.5294 111.928 56.2485 123.789H58.7372C57.9092 110.928 62.3047 101.091 64.7792 98.6855C67.2537 96.2799 69.6762 96.3037 69.766 96.3037H71.3037V93.8267Z" fill="#202332"/>
<path d="M97.6811 96.156C96.0299 94.365 93.21 93.5838 89.2971 93.8267H88.5827V96.3275H89.4107C92.4908 96.1322 94.7098 96.6514 95.8264 97.8328C96.1093 98.1325 96.328 98.4876 96.4688 98.8761C96.6096 99.2645 96.6696 99.6779 96.6449 100.091L99.1053 100.419C99.1769 99.648 99.0872 98.8701 98.8419 98.1358C98.5966 97.4015 98.2012 96.7271 97.6811 96.156Z" fill="#202332"/>
<path d="M106.917 113.005C107.063 113.004 107.204 113.061 107.31 113.163C107.416 113.266 107.478 113.405 107.485 113.552C107.565 116.39 107.424 119.23 107.063 122.046C106.953 123.003 106.676 123.933 106.245 124.794C105.844 125.665 105.199 126.399 104.39 126.907C103.581 127.415 102.642 127.674 101.689 127.652C101.546 127.639 101.414 127.573 101.318 127.467C101.221 127.361 101.168 127.222 101.168 127.078C101.168 126.934 101.221 126.796 101.318 126.69C101.414 126.583 101.546 126.517 101.689 126.504C105.474 126.504 105.914 122.122 105.947 121.936C106.294 119.182 106.434 116.404 106.363 113.629C106.357 113.476 106.41 113.328 106.512 113.215C106.614 113.103 106.756 113.036 106.907 113.028L106.917 113.005Z" fill="#C6C6C6"/>
<g style="mix-blend-mode:multiply">
<path d="M101.712 127.652C102.666 127.674 103.604 127.415 104.414 126.907C105.223 126.399 105.867 125.665 106.269 124.794C106.699 123.933 106.977 123.003 107.087 122.046C107.447 119.23 107.588 116.39 107.508 113.552C107.502 113.405 107.44 113.266 107.334 113.163C107.228 113.061 107.087 113.004 106.94 113.005C106.789 113.012 106.647 113.079 106.545 113.192C106.443 113.304 106.39 113.453 106.396 113.605C106.396 113.605 106.396 113.757 106.396 114.014H106.444C106.572 114.014 106.695 114.063 106.789 114.152C106.882 114.241 106.938 114.362 106.945 114.491C107.011 116.996 106.886 119.502 106.571 121.988C106.472 122.833 106.227 123.653 105.847 124.413C105.494 125.183 104.926 125.832 104.211 126.28C103.497 126.729 102.668 126.957 101.826 126.938C101.725 126.939 101.625 126.91 101.541 126.854C101.456 126.798 101.391 126.718 101.353 126.623C101.28 126.678 101.221 126.751 101.183 126.834C101.144 126.917 101.126 127.008 101.13 127.1C101.136 127.25 101.201 127.392 101.309 127.495C101.418 127.599 101.563 127.655 101.712 127.652Z" fill="#C6C6C6"/>
</g>
<path d="M89.2735 113.005C89.1269 113.004 88.986 113.061 88.8802 113.163C88.7743 113.266 88.7118 113.405 88.7057 113.552C88.6257 116.39 88.7665 119.23 89.1268 122.046C89.2373 123.003 89.5144 123.933 89.9453 124.794C90.3464 125.665 90.991 126.399 91.8003 126.907C92.6096 127.415 93.5484 127.674 94.5016 127.652C94.6439 127.639 94.7761 127.573 94.8724 127.467C94.9688 127.361 95.0221 127.222 95.0221 127.078C95.0221 126.934 94.9688 126.796 94.8724 126.69C94.7761 126.583 94.6439 126.517 94.5016 126.504C90.7166 126.504 90.2765 122.122 90.2434 121.936C89.893 119.182 89.7538 116.404 89.8271 113.629C89.8335 113.476 89.7799 113.328 89.6779 113.215C89.576 113.103 89.434 113.036 89.283 113.028L89.2735 113.005Z" fill="#C6C6C6"/>
<g style="mix-blend-mode:multiply">
<path d="M94.5016 127.652C93.5484 127.674 92.6096 127.415 91.8003 126.907C90.991 126.399 90.3464 125.665 89.9453 124.794C89.5144 123.933 89.2373 123.003 89.1268 122.046C88.7665 119.23 88.6257 116.39 88.7057 113.552C88.7118 113.405 88.7743 113.266 88.8802 113.163C88.986 113.061 89.1269 113.004 89.2735 113.005H89.2971C89.4482 113.012 89.5902 113.079 89.6921 113.192C89.7941 113.304 89.8477 113.453 89.8413 113.605C89.8413 113.605 89.8413 113.757 89.8413 114.014H89.7797C89.6515 114.014 89.5281 114.063 89.4348 114.152C89.3415 114.241 89.2855 114.362 89.2782 114.491C89.2126 116.996 89.3392 119.503 89.6567 121.988C89.7425 122.833 89.9797 123.654 90.357 124.413C90.71 125.183 91.2787 125.832 91.9932 126.28C92.7077 126.729 93.5368 126.957 94.3786 126.938C94.4798 126.939 94.5791 126.91 94.6635 126.854C94.748 126.798 94.8136 126.718 94.8518 126.623C94.9446 126.697 95.0125 126.798 95.0461 126.912C95.0797 127.026 95.0775 127.148 95.0396 127.26C95.0018 127.373 94.9302 127.471 94.8347 127.542C94.7393 127.612 94.6246 127.65 94.5064 127.652H94.5016Z" fill="#C6C6C6"/>
</g>
<path d="M97.7048 99.5238H97.8656C100.023 99.4704 102.12 100.243 103.733 101.686C108.331 105.835 108.081 114.576 108.066 114.948C108.032 115.229 107.89 115.486 107.671 115.663C107.452 115.841 107.173 115.926 106.893 115.901C106.753 115.906 106.613 115.883 106.482 115.833C106.35 115.784 106.23 115.709 106.127 115.612C106.025 115.516 105.942 115.4 105.885 115.271C105.827 115.142 105.795 115.003 105.791 114.862C105.791 114.753 106.018 106.602 102.1 103.073C100.919 102.009 99.3732 101.45 97.7899 101.515H97.7095C96.4114 101.567 95.1717 102.072 94.2035 102.944C92.4766 104.411 90.4185 107.674 90.4185 114.896C90.3827 115.175 90.2472 115.431 90.0373 115.617C89.8275 115.803 89.5576 115.905 89.2782 115.905C88.9988 115.905 88.7289 115.803 88.519 115.617C88.3092 115.431 88.1737 115.175 88.1379 114.896C88.1379 108.47 89.6804 103.94 92.7132 101.424C94.1168 100.243 95.8757 99.573 97.7048 99.5238Z" fill="#202332"/>
<g style="mix-blend-mode:multiply">
<path d="M89.2735 115.92C89.5474 115.935 89.8169 115.846 90.0277 115.669C90.2384 115.492 90.3747 115.241 90.409 114.967C90.1634 114.979 89.9228 114.894 89.7382 114.731C89.5536 114.567 89.4396 114.337 89.4202 114.091C89.4202 108.494 90.7591 104.564 93.404 102.353C94.6267 101.319 96.1603 100.73 97.7568 100.681H97.894C99.7773 100.64 101.606 101.321 103.009 102.587C107.011 106.202 106.794 113.814 106.794 114.138C106.767 114.381 106.65 114.604 106.465 114.762C106.28 114.919 106.042 115 105.8 114.986C105.846 115.256 105.986 115.502 106.194 115.679C106.402 115.855 106.666 115.952 106.938 115.952C107.21 115.952 107.474 115.855 107.682 115.679C107.891 115.502 108.03 115.256 108.076 114.986C108.076 114.615 108.341 105.874 103.742 101.725C102.129 100.281 100.032 99.5085 97.8751 99.562H97.7143C95.883 99.6114 94.1222 100.283 92.7179 101.467C89.6851 103.978 88.1427 108.513 88.1427 114.939C88.168 115.218 88.3001 115.476 88.5111 115.659C88.722 115.842 88.9954 115.936 89.2735 115.92Z" fill="#B2B2B2"/>
</g>
<path d="M99.4696 127.014C99.4696 126.752 99.5727 126.502 99.7564 126.317C99.9401 126.132 100.189 126.028 100.449 126.028L102.285 126.185C102.852 126.328 102.834 126.633 102.852 127.014C102.852 127.428 102.852 127.729 102.233 127.876L100.449 128C100.32 128.001 100.193 127.976 100.073 127.926C99.9543 127.877 99.8461 127.804 99.755 127.713C99.664 127.621 99.5918 127.512 99.5428 127.392C99.4938 127.272 99.4689 127.144 99.4696 127.014Z" fill="#202332"/>
<g style="mix-blend-mode:soft-light">
<path d="M100.837 127.014C100.651 127.002 100.466 127.04 100.3 127.123C100.134 127.207 99.9924 127.334 99.8906 127.49C100.073 127.672 100.32 127.775 100.577 127.776L101.665 127.695C101.712 127.152 101.381 127.009 100.837 127.014Z" fill="white"/>
</g>
<g style="mix-blend-mode:multiply">
<path d="M101.239 126.485C101.402 126.498 101.56 126.544 101.705 126.62C101.85 126.696 101.978 126.8 102.082 126.927C102.186 127.053 102.264 127.199 102.311 127.357C102.358 127.514 102.373 127.679 102.356 127.843C102.857 127.69 102.862 127.4 102.862 127.014C102.862 126.628 102.862 126.328 102.294 126.185L100.458 126.028C100.234 126.032 100.017 126.114 99.845 126.26C99.6728 126.406 99.5553 126.606 99.5121 126.828C99.7624 126.657 100.044 126.539 100.341 126.48C100.638 126.421 100.943 126.423 101.239 126.485Z" fill="#878787"/>
</g>
<path d="M97.2884 127.014C97.2872 126.752 97.1829 126.501 96.9985 126.316C96.8141 126.132 96.5645 126.028 96.3043 126.028L94.4733 126.185C93.9008 126.328 93.9197 126.633 93.9008 127.014C93.9008 127.428 93.9008 127.729 94.5206 127.876L96.3043 128C96.4333 128.001 96.5612 127.976 96.6805 127.926C96.7999 127.877 96.9084 127.805 96.9999 127.713C97.0913 127.621 97.1639 127.512 97.2134 127.392C97.2629 127.272 97.2884 127.144 97.2884 127.014Z" fill="#202332"/>
<g style="mix-blend-mode:soft-light">
<path d="M95.9163 127.014C96.102 127 96.2879 127.038 96.4544 127.121C96.6209 127.205 96.7619 127.333 96.8626 127.49C96.7738 127.582 96.6678 127.654 96.5507 127.703C96.4337 127.752 96.308 127.777 96.1813 127.776L95.093 127.695C95.0505 127.152 95.3675 127.009 95.9163 127.014Z" fill="white"/>
</g>
<g style="mix-blend-mode:multiply">
<path d="M95.5236 126.485C95.3609 126.498 95.2024 126.544 95.0576 126.62C94.9128 126.696 94.7845 126.8 94.6804 126.927C94.5763 127.053 94.4985 127.199 94.4515 127.357C94.4045 127.514 94.3894 127.679 94.407 127.843C93.9055 127.69 93.9008 127.4 93.9008 127.014C93.9008 126.628 93.9008 126.328 94.4733 126.185L96.3043 126.028C96.5291 126.032 96.7456 126.114 96.9177 126.26C97.0899 126.406 97.2074 126.606 97.2506 126.828C97.0003 126.657 96.7185 126.539 96.4217 126.48C96.125 126.421 95.8196 126.423 95.5236 126.485Z" fill="#878787"/>
</g>
<path d="M52.5817 122.617C52.5817 121.553 52.8953 120.512 53.4828 119.627C54.0702 118.742 54.9052 118.052 55.8822 117.644C56.8591 117.237 57.9341 117.13 58.9712 117.338C60.0083 117.546 60.961 118.058 61.7087 118.811C62.4564 119.564 62.9656 120.523 63.1719 121.567C63.3782 122.611 63.2723 123.694 62.8676 124.677C62.463 125.661 61.7777 126.501 60.8985 127.093C60.0193 127.684 58.9856 128 57.9282 128C56.5102 128 55.1503 127.433 54.1477 126.423C53.145 125.414 52.5817 124.045 52.5817 122.617Z" fill="#202332"/>
<path d="M54.0485 122.617C54.0485 121.845 54.276 121.09 54.7023 120.447C55.1286 119.805 55.7346 119.304 56.4435 119.009C57.1524 118.713 57.9325 118.636 58.6851 118.786C59.4377 118.937 60.129 119.309 60.6716 119.855C61.2141 120.402 61.5837 121.098 61.7334 121.855C61.8831 122.613 61.8062 123.398 61.5126 124.112C61.2189 124.826 60.7217 125.436 60.0836 125.865C59.4456 126.294 58.6955 126.523 57.9282 126.523C57.4185 126.524 56.9137 126.423 56.4427 126.227C55.9718 126.031 55.5438 125.743 55.1834 125.381C54.823 125.018 54.5373 124.587 54.3425 124.113C54.1478 123.639 54.0478 123.13 54.0485 122.617Z" fill="#B2B2B2"/>
<path d="M54.6683 122.617C54.6683 121.968 54.8595 121.334 55.2177 120.794C55.5759 120.254 56.085 119.833 56.6807 119.585C57.2763 119.337 57.9318 119.272 58.5642 119.398C59.1965 119.525 59.7774 119.837 60.2333 120.296C60.6892 120.756 60.9997 121.34 61.1255 121.977C61.2512 122.614 61.1867 123.274 60.9399 123.873C60.6932 124.473 60.2754 124.986 59.7393 125.346C59.2032 125.707 58.5729 125.899 57.9282 125.899C57.0636 125.899 56.2344 125.554 55.6231 124.938C55.0117 124.323 54.6683 123.488 54.6683 122.617Z" fill="#9D9D9C"/>
</g>
<defs>
<clipPath id="clip0_997_544">
<rect width="90" height="100" fill="white" transform="translate(35 28)"/>
</clipPath>
</defs>
</svg>
