<svg width="160" height="160" viewBox="0 0 160 160" fill="none" xmlns="http://www.w3.org/2000/svg">
<circle cx="80" cy="80" r="80" fill="#325CF4"/>
<path d="M99.0569 30H55.8293C54.2833 30 52.8006 30.6142 51.7074 31.7074C50.6142 32.8006 50 34.2833 50 35.8293V124.174C50.0012 125.72 50.6159 127.201 51.709 128.294C52.802 129.386 54.284 130 55.8293 130H99.0569C99.8223 130 100.58 129.849 101.287 129.556C101.994 129.263 102.637 128.834 103.178 128.293C103.719 127.752 104.149 127.109 104.442 126.402C104.735 125.695 104.885 124.937 104.885 124.172V35.8293C104.885 34.2835 104.271 32.8011 103.178 31.708C102.085 30.6148 100.603 30.0005 99.0569 30Z" fill="white"/>
<path d="M102.06 37.944H52.8256V122.058H102.06V37.944Z" fill="#325CF4" fill-opacity="0.5"/>
<mask id="mask0_1457_312" style="mask-type:luminance" maskUnits="userSpaceOnUse" x="52" y="37" width="71" height="86">
<path d="M102.06 122.059H52.8256V37.9449H102.06L122.596 74.2089L102.06 122.059Z" fill="white"/>
</mask>
<g mask="url(#mask0_1457_312)">
<path d="M80.7668 75.0886L80.7789 76.1213L80.8965 78.6894L75.8405 78.0243L75.2901 77.2752L75.2454 75.3237L75.0793 73.4963H78.4403L80.7668 75.0886Z" fill="#EFBFA5"/>
<path d="M72.9282 61.2192C72.9282 61.2192 70.7659 59.8013 68.306 61.2192C65.8461 62.6371 65.8452 67.4198 66.8135 68.5644C67.7817 69.709 66.764 71.2584 68.7025 72.7519C70.6409 74.2453 73.7276 74.7948 75.4898 73.0495C77.2519 71.3041 75.9562 67.4095 75.9562 67.4095L72.9282 61.2192Z" fill="black"/>
<path d="M62.3629 120.991C61.1502 120.741 60.8433 121.526 59.6138 121.271L59.9021 123.171C59.737 123.544 59.3685 124.528 59.3685 124.528C57.9982 128.507 58.0737 128.077 58.209 128.151C58.3443 128.225 59.3741 126.752 59.4916 126.89C59.6092 127.028 58.9021 129.395 59.112 129.331C59.3219 129.268 60.2388 127.163 60.3573 127.243C60.4758 127.322 59.7622 129.596 60.0709 129.675C60.3797 129.755 61.0793 127.237 61.2995 127.4C61.5196 127.563 60.7398 130.125 61.0318 130.152C61.279 130.174 62.2221 127.331 62.5168 126.421C62.5257 126.394 62.5415 126.371 62.5625 126.353C62.5836 126.334 62.6092 126.322 62.6366 126.317C62.664 126.313 62.6922 126.315 62.7182 126.325C62.7443 126.335 62.7672 126.351 62.7846 126.373C63.9646 127.851 64.1428 127.896 64.2771 127.729C64.3704 127.61 63.764 126.003 63.2808 124.465L62.639 122.591L62.3629 120.991Z" fill="#F6BBBE"/>
<path d="M110.712 77.1222C110.717 77.1483 110.729 77.1724 110.747 77.1922C110.765 77.2119 110.787 77.2264 110.813 77.2342C110.838 77.2419 110.865 77.2426 110.891 77.2362C110.917 77.2298 110.94 77.2165 110.959 77.1978C111.601 76.5588 113.631 74.5588 113.83 74.6847C114.067 74.8358 112.297 76.667 112.412 76.9011C112.528 77.1353 114.21 75.305 114.438 75.5065C114.665 75.708 113.077 77.3256 113.143 77.444C113.209 77.5625 114.897 76.1763 115.102 76.2146C115.306 76.2528 113.685 77.9478 113.725 78.1185C113.765 78.2892 115.273 77.486 115.356 77.6073C115.439 77.7285 115.516 77.7938 112.634 80.5718L111.452 81.6166L110.029 81.9478L109.024 80.5028C109.024 80.5028 109.842 75.4133 110.035 75.3256C110.229 75.2379 110.355 75.3573 110.712 77.1222Z" fill="#EFBFA5"/>
<path d="M72.2649 134.442L75.1941 145.305C81.958 145.298 88.6595 145.313 93.6726 141.964C93.6726 141.964 91.723 117.083 88.1623 104.584L69.2407 103.371C69.2407 103.371 60.8554 116.804 68.4207 145.104C68.4207 145.104 69.7146 145.198 71.7789 145.259L72.2649 134.442Z" fill="white"/>
<path d="M85.0243 66.9608C84.7146 67.8004 85.0093 68.6856 85.6773 68.9338C86.3452 69.1819 87.1446 68.7006 87.4496 67.8582C87.7547 67.0159 87.4646 66.1334 86.7967 65.8862C86.1288 65.639 85.333 66.1194 85.0243 66.9608Z" fill="#EFBFA5"/>
<path d="M75.0252 73.0336C75.0252 73.0336 75.1586 74.0699 75.2454 75.3237C75.8142 75.7911 76.4724 76.1375 77.1798 76.3417C77.8872 76.5459 78.6287 76.6036 79.3592 76.5112C79.8498 76.4481 80.3292 76.3169 80.7836 76.1213C80.7491 75.3041 80.7612 74.5457 80.8871 74.1828C81.2295 73.1838 75.0252 73.0336 75.0252 73.0336Z" fill="black" fill-opacity="0.1"/>
<path d="M85.5 78.2687L99.9291 89.0569L108.993 79.7416C108.993 79.7416 111.703 81.8377 111.703 81.7995C111.703 81.7612 103.183 95.112 101.091 95.8107C99 96.5093 85.5038 87.0896 85.5038 87.0896L85.5 78.2687Z" fill="white"/>
<path d="M84.9525 71.8247C85.1482 71.456 85.3093 71.07 85.4338 70.6717C85.7641 69.6296 85.9601 68.5497 86.0168 67.4581C86.0308 67.2454 86.056 67.0336 86.0859 66.8219C86.2205 65.8706 86.1556 64.9016 85.8954 63.9768C85.6353 63.0519 85.1855 62.1913 84.5747 61.4496C83.9639 60.708 83.2054 60.1016 82.3475 59.669C81.4896 59.2364 80.5511 58.9871 79.5917 58.9368C78.6322 58.8866 77.6728 59.0366 76.7744 59.3773C75.8761 59.718 75.0584 60.2419 74.3735 60.9157C73.6886 61.5895 73.1515 62.3984 72.7961 63.2911C72.4408 64.1838 72.2752 65.1406 72.3097 66.1008C71.8694 65.875 71.3769 65.8359 70.9599 66.042C70.1512 66.4385 69.8965 67.5803 70.39 68.5924C70.8834 69.6045 71.9394 70.1054 72.7472 69.7118C72.8575 69.6572 72.9595 69.5875 73.0504 69.5047C73.5168 72.8872 76.3778 75.4114 79.7053 75.2416C81.2806 75.1582 82.765 74.4777 83.8564 73.3386C83.9361 73.267 84.0118 73.191 84.0831 73.111C84.4276 72.7219 84.7199 72.2895 84.9525 71.8247Z" fill="#EFBFA5"/>
<path d="M87.6549 92.3517C87.7043 92.2985 89.876 89.9776 89.4534 85.625C89.2248 83.2621 88.0084 81.1054 86.9291 79.6129C86.4595 78.9617 85.8447 78.4288 85.1334 78.0564C84.4221 77.684 83.6339 77.4824 82.8312 77.4674C79.861 77.4123 75.1204 77.347 75.1204 77.347C75.1204 77.347 69.0038 76.6745 67.0644 79.0662C65.125 81.458 58.5607 98.0541 58.1885 105.977C57.8163 113.899 59.7547 123.243 59.7547 123.243C59.7547 123.243 61.9179 123.393 62.8872 123.243C63.8564 123.094 62.6633 107.921 63.7081 105.454C64.7528 102.988 69.4515 91.1819 69.75 90.056L70.9142 96.2388C71.1286 97.3785 71.0292 98.5551 70.6269 99.6427C69.639 102.31 67.7351 107.434 66.9637 109.333C66.9637 109.333 81.6484 111.701 88.8853 108.113L88.82 107.833C87.6205 102.766 87.2273 97.5413 87.6549 92.3517Z" fill="white"/>
<path d="M73.9739 77.2752C73.9739 77.2752 78.6455 83.208 79.64 85.3498C79.64 85.3498 82.3825 81.7434 82.5019 77.4449C79.6885 77.0942 76.8433 77.0662 73.9739 77.2752Z" fill="#EFBFA5"/>
<path d="M79.639 85.3498C79.7634 87.9941 79.847 90.6411 79.8899 93.291C79.917 94.6157 79.9245 95.9403 79.9385 97.2649C79.9524 98.5895 79.9441 99.9151 79.9385 101.24C79.9341 101.902 79.9266 102.565 79.9161 103.228C79.9049 103.89 79.8993 104.552 79.8834 105.215C79.848 106.539 79.82 107.864 79.7593 109.187C79.6502 111.834 79.4935 114.481 79.1996 117.104L79.251 116.112L79.3088 115.122C79.3405 114.462 79.361 113.8 79.3881 113.14L79.4086 112.645L79.4226 112.148L79.4506 111.157L79.4814 110.165L79.501 109.173C79.5607 106.529 79.5942 103.882 79.6064 101.236C79.6185 98.5895 79.6316 95.9421 79.6353 93.2948L79.639 85.3498Z" fill="#EADCFF"/>
<path d="M70.2575 88.1026C70.2276 88.2687 70.2025 88.4356 70.1689 88.6007C70.1353 88.7659 70.1017 88.931 70.0579 89.0942C69.9803 89.4223 69.8773 89.7438 69.75 90.056C69.8461 89.7344 69.9224 89.4073 69.9786 89.0765C70.0411 88.7481 70.0849 88.416 70.1288 88.084C70.2071 87.4198 70.2491 86.7509 70.2678 86.0821L70.2808 85.5802V85.0784C70.2864 84.7435 70.264 84.4086 70.2594 84.0737C70.2594 83.9058 70.2416 83.7388 70.2351 83.5709L70.2099 83.0681C70.1885 82.7332 70.1586 82.3993 70.1409 82.0625C70.1959 82.3937 70.2426 82.7276 70.2911 83.0606C70.3256 83.3955 70.3666 83.7295 70.39 84.0662L70.4207 84.57C70.4319 84.7388 70.4357 84.9067 70.4394 85.0756L70.4469 85.5812L70.2575 88.1026Z" fill="#EADCFF"/>
<path d="M85.6913 60.5886C84.4114 56.181 78.5672 56.0261 78.5672 56.0261C69.529 56.6539 70.9525 64.5989 71.251 65.9142C71.5122 65.8535 71.8722 65.861 72.3097 66.1007C72.4711 66.1865 72.6225 66.2897 72.7612 66.4086C73.8256 66.084 74.1484 64.3125 74.6997 63.459C75.4459 62.3013 78.7426 62.8993 79.9926 62.0765C80.3557 61.8435 80.666 61.5371 80.9035 61.1768C81.141 60.8166 81.3003 60.4106 81.3713 59.9851C86.1922 60.7509 86.1176 65.8563 86.1176 65.8563C86.2713 65.8281 86.4281 65.8199 86.584 65.8321C86.584 65.8321 86.8359 64.5271 85.6913 60.5886Z" fill="black"/>
<path d="M75.2799 76.8778C75.2922 76.9997 75.2922 77.1225 75.2799 77.2444C73.3937 84.291 73.5765 91.3349 73.7873 94.3834C74.1417 94.412 74.4729 94.571 74.7169 94.8295C74.9609 95.0881 75.1004 95.4279 75.1086 95.7833C75.1167 96.1387 74.9929 96.4845 74.7609 96.754C74.529 97.0234 74.2055 97.1974 73.8528 97.2422C73.5002 97.2871 73.1434 97.1996 72.8514 96.9968C72.5594 96.794 72.3529 96.4902 72.2718 96.1441C72.1908 95.7979 72.2408 95.434 72.4123 95.1226C72.5839 94.8112 72.8647 94.5745 73.2006 94.458C72.8853 91.3796 72.5103 84.1968 74.7696 77.1436C74.8442 76.8974 75.2295 76.8638 75.2799 76.8778ZM85.8825 82.7323C85.2892 82.0494 84.5812 81.7164 83.8228 81.7556C83.6661 80.9235 83.0345 78.2686 81.1782 76.8992C81.1515 76.8779 81.1208 76.8621 81.0879 76.8528C81.055 76.8435 81.0206 76.8409 80.9866 76.8452C80.9527 76.8495 80.92 76.8605 80.8904 76.8776C80.8608 76.8947 80.835 76.9176 80.8144 76.9449C80.8144 77.0895 80.7845 77.2705 80.8797 77.3367C82.5868 78.5196 83.1409 81.0504 83.2957 81.8377C81.111 82.375 81.1502 84.9058 81.1875 87.8199C81.2108 89.4254 81.237 91.2453 80.9077 92.9907C80.8949 93.0599 80.9101 93.1314 80.9499 93.1895C80.9898 93.2476 81.0511 93.2874 81.1204 93.3004H81.1558C81.2442 93.3849 81.3618 93.4321 81.4842 93.4319C81.6022 93.4316 81.7156 93.3858 81.8007 93.3041C81.8859 93.2223 81.9363 93.1109 81.9415 92.993C81.9466 92.8751 81.9062 92.7597 81.8285 92.6708C81.7508 92.582 81.6418 92.5265 81.5243 92.5158C81.7594 90.9011 81.737 89.2677 81.7155 87.8088C81.6679 84.4981 81.7342 82.6101 83.6418 82.305C84.3181 82.194 84.9357 82.4552 85.4767 83.0783C87.1353 84.986 87.6222 89.6539 86.9207 92.3946C86.8858 92.3867 86.8502 92.3827 86.8144 92.3824C86.7307 92.3837 86.649 92.4077 86.578 92.452C86.507 92.4962 86.4495 92.559 86.4115 92.6335C86.3735 92.7081 86.3566 92.7916 86.3625 92.875C86.3685 92.9584 86.3971 93.0387 86.4453 93.1071C86.4934 93.1755 86.5593 93.2294 86.6359 93.2631C86.7124 93.2969 86.7967 93.3091 86.8797 93.2984C86.9627 93.2878 87.0412 93.2547 87.1068 93.2028C87.1724 93.1509 87.2225 93.082 87.2519 93.0037C87.2919 92.9706 87.3214 92.9265 87.3368 92.8768C88.222 90.0541 87.7668 84.8974 85.8853 82.7323H85.8825Z" fill="#67537B"/>
<path d="M74.3321 95.8582C74.3249 95.9896 74.2788 96.1159 74.1998 96.2212C74.1207 96.3264 74.0122 96.4058 73.888 96.4493C73.7638 96.4929 73.6295 96.4986 73.502 96.4657C73.3746 96.4329 73.2597 96.363 73.172 96.2648C73.0843 96.1667 73.0277 96.0447 73.0094 95.9144C72.991 95.784 73.0118 95.6512 73.069 95.5327C73.1262 95.4141 73.2172 95.3152 73.3307 95.2485C73.4441 95.1817 73.5748 95.1501 73.7062 95.1577C73.882 95.1678 74.0466 95.2472 74.164 95.3785C74.2813 95.5099 74.3418 95.6824 74.3321 95.8582Z" fill="#392054"/>
</g>
<path d="M87.5933 34.2472H67.3722C67.1383 34.2472 66.9487 34.4368 66.9487 34.6707V34.8778C66.9487 35.1117 67.1383 35.3013 67.3722 35.3013H87.5933C87.8272 35.3013 88.0168 35.1117 88.0168 34.8778V34.6707C88.0168 34.4368 87.8272 34.2472 87.5933 34.2472Z" fill="#EADCFF"/>
<path d="M102.06 117.083H52.8256V122.059H102.06V117.083Z" fill="#113BB3"/>
<path d="M102.06 37.944H52.8256V42.4076H102.06V37.944Z" fill="#113BB3"/>
</svg>
