<svg width="160" height="160" viewBox="0 0 160 160" fill="none" xmlns="http://www.w3.org/2000/svg">
<circle cx="80" cy="80" r="80" fill="#325CF4"/>
<g clip-path="url(#clip0_1457_313)">
<path d="M111.569 40.7332C111.225 39 109.769 38.7222 109.147 39.1985C108.526 39.6748 106.792 41.3683 106.607 46.9385C106.422 52.5086 106.607 57.3114 106.607 57.3114C105.549 57.0468 103.961 58.092 103.789 61.2145C103.617 64.3369 103.538 80.3859 102.783 83.7068C108.446 83.2834 114.691 75.7683 114.691 75.7683L111.569 40.7332Z" fill="#F5CDAF"/>
<path d="M121.743 77.2502C120.618 72.0769 116.385 47.4677 115.564 43.3794C114.744 39.2911 110.669 37.8357 110.193 45.6154C109.716 53.3951 111.317 64.7868 111.317 67.6049C111.174 70.4809 110.878 73.3472 110.431 76.1917C109.907 76.2196 109.395 76.3509 108.922 76.578C108.45 76.8051 108.027 77.1235 107.679 77.5148L107.586 77.6339C107.494 77.7529 107.401 77.8588 107.322 77.9779C105.998 79.7111 100.918 86.0486 98.3643 88.6683C95.3874 91.7246 88.0046 98.9486 85.7554 103.593C83.5061 108.237 82.8843 111.531 84.9615 119.814C85.4875 122.585 87.6965 124.947 90.5178 124.947H98.5402C101.537 124.947 103.801 122.269 104.489 119.352C104.904 117.594 105.616 115.905 106.607 114.362C109.941 109.229 118.369 93.9871 120.936 89.4092C123.503 84.8314 122.868 82.3837 121.743 77.2502Z" fill="#FFE1C3"/>
<path d="M109.161 76.5092C109.277 76.4267 109.401 76.3558 109.531 76.2975C109.907 76.1255 110.31 76.0181 110.722 75.98C111.367 75.9118 112.02 75.9748 112.64 76.1652C113.067 76.2838 113.466 76.4881 113.812 76.7656C114.158 77.0431 114.443 77.388 114.651 77.7794C115.071 78.7599 115.095 79.8646 114.718 80.8622C114.351 81.8943 113.908 82.8981 113.394 83.8655C112.336 85.8369 111.119 87.8348 109.875 89.912C108.631 91.9892 107.348 93.8812 106.104 95.7732C104.861 97.6652 103.67 99.3323 102.678 100.801C101.685 102.27 100.772 103.447 100.19 104.32C99.608 105.194 99.264 105.643 99.264 105.643C99.4693 105.141 99.7034 104.65 99.9652 104.175C100.468 103.262 101.143 101.926 102.056 100.391C102.969 98.856 103.974 97.0434 105.138 95.0985L108.75 89.2769C110.074 87.2658 111.264 85.3077 112.402 83.3628L113.209 82.0397C113.466 81.6135 113.696 81.1716 113.897 80.7166C114.27 79.9292 114.322 79.0279 114.043 78.2028C113.741 77.5175 113.179 76.98 112.482 76.7077C111.925 76.4687 111.327 76.3428 110.722 76.3372C110.195 76.2646 109.659 76.3237 109.161 76.5092Z" fill="#F5CDAF"/>
<g style="mix-blend-mode:screen" opacity="0.7">
<path d="M112.111 78.0308C110.431 76.7077 109.306 77.1972 107.785 79.4994C106.263 81.8015 106.382 82.9791 107.626 83.9317C108.87 84.8843 110.96 83.6671 111.86 82.5028C113.328 80.5975 113.738 79.3142 112.111 78.0308Z" fill="#FFE1C3"/>
</g>
<path d="M48.1668 40.7332C48.4975 39 49.9397 38.7222 50.588 39.1985C51.2363 39.6748 52.9431 41.3683 53.1283 46.9385C53.3135 52.5086 53.1283 57.3114 53.1283 57.3114C54.1868 57.0468 55.7745 58.092 55.9332 61.2145C56.092 64.3369 56.1846 80.3859 56.9388 83.7068C51.276 83.2834 45.0311 75.7683 45.0311 75.7683L48.1668 40.7332Z" fill="#F5CDAF"/>
<path d="M37.9791 77.2502C39.1037 72.0769 43.364 47.4677 44.1578 43.3794C44.9517 39.2911 49.0532 37.8357 49.5428 45.6154C50.0323 53.3951 48.4182 64.8 48.4182 67.6182C48.5612 70.4941 48.8571 73.3604 49.3046 76.2049C49.828 76.2329 50.3406 76.3642 50.8129 76.5912C51.2853 76.8183 51.708 77.1367 52.0566 77.528L52.1492 77.6471C52.2418 77.7662 52.3345 77.872 52.4138 77.9911C53.7369 79.7243 58.8175 86.0619 61.3711 88.6815C64.3348 91.7379 71.7175 98.9619 73.9668 103.606C76.216 108.25 76.8511 111.544 74.7738 119.827C74.2597 122.611 72.0516 125 69.2199 125H61.1555C58.1591 125 55.8951 122.321 55.2066 119.405C54.7914 117.647 54.0796 115.958 53.0886 114.415C49.7412 109.282 41.3132 94.04 38.7465 89.4622C36.1797 84.8843 36.8545 82.3837 37.9791 77.2502Z" fill="#FFE1C3"/>
<path d="M50.5748 76.5092C50.0829 76.2802 49.5421 76.1757 49.0003 76.2049C48.3953 76.2133 47.7976 76.3391 47.2406 76.5754C46.5487 76.8518 45.9929 77.3886 45.6926 78.0705C45.4135 78.8956 45.4657 79.7969 45.8382 80.5843C46.0347 81.0392 46.2601 81.4812 46.5129 81.9074L47.3332 83.2305C48.4578 85.1225 49.728 87.1997 50.9717 89.1446L54.6234 95.072C55.8009 96.964 56.8065 98.7766 57.7194 100.364C58.6323 101.952 59.2938 103.235 59.7966 104.148C60.2994 105.061 60.5111 105.617 60.5111 105.617L59.5849 104.294C58.9895 103.434 58.0898 102.243 57.0975 100.774C56.1052 99.3059 54.8748 97.6123 53.6575 95.7468C52.4403 93.8812 51.1437 91.9231 49.8868 89.912C48.6298 87.9009 47.4258 85.8369 46.3674 83.8656C45.8532 82.8983 45.4109 81.8944 45.0443 80.8622C44.6392 79.8745 44.6392 78.7671 45.0443 77.7794C45.2533 77.3862 45.5409 77.04 45.8891 76.7624C46.2373 76.4847 46.6387 76.2815 47.0686 76.1652C47.702 75.9934 48.3639 75.9529 49.0135 76.0462C49.4213 76.084 49.8196 76.1914 50.1911 76.3637C50.3235 76.3994 50.452 76.4481 50.5748 76.5092Z" fill="#F5CDAF"/>
<g style="mix-blend-mode:screen" opacity="0.7">
<path d="M47.5846 78.0308C49.2649 76.7077 50.4028 77.1972 51.9111 79.4994C53.4194 81.8015 53.3135 82.9791 52.0831 83.9317C50.8526 84.8843 48.7357 83.6671 47.836 82.5028C46.4071 80.5975 45.9308 79.3142 47.5846 78.0308Z" fill="#FFE1C3"/>
</g>
<path d="M94.6332 61.3203C94.6332 64.2439 93.7661 67.1017 92.1416 69.5324C90.5171 71.963 88.2082 73.8572 85.507 74.9754C82.8058 76.0936 79.8336 76.3855 76.9664 75.8142C74.0992 75.2429 71.4659 73.834 69.3996 71.7658C67.3333 69.6977 65.9268 67.0631 65.3581 64.1954C64.7893 61.3277 65.0839 58.3558 66.2045 55.6556C67.3251 52.9553 69.2214 50.6481 71.6534 49.0258C74.0855 47.4035 76.9442 46.539 79.8677 46.5416C81.8078 46.5416 83.729 46.9239 85.5213 47.6668C87.3136 48.4097 88.9419 49.4985 90.3132 50.871C91.6845 52.2435 92.7718 53.8728 93.5131 55.6658C94.2543 57.4587 94.635 59.3802 94.6332 61.3203Z" fill="white"/>
<path d="M82.5006 52.2837H77.2215V70.3437H82.5006V52.2837Z" fill="#113BB3"/>
<path d="M88.8911 58.6742H70.8311V63.9533H88.8911V58.6742Z" fill="#113BB3"/>
</g>
<defs>
<clipPath id="clip0_1457_313">
<rect width="85.7222" height="86" fill="white" transform="translate(37 39)"/>
</clipPath>
</defs>
</svg>
