<svg width="160" height="160" viewBox="0 0 160 160" fill="none" xmlns="http://www.w3.org/2000/svg">
<circle cx="80" cy="80" r="80" fill="#325CF4"/>
<g clip-path="url(#clip0_1457_314)">
<path d="M93.4146 114.264H68.5873C68.4221 114.264 68.2455 114.416 68.0841 114.707L64.7443 118.983C64.0057 120.299 63.9469 123 64.6779 123H97.3222C98.0551 123 97.9943 120.299 97.2576 118.983L93.9159 114.707C93.7583 114.416 93.5779 114.264 93.4146 114.264Z" fill="#FFE1C3"/>
<path d="M59.8988 59.673H54.8882V65.3003H59.8988V59.673Z" fill="white" fill-opacity="0.3"/>
<path d="M65.1449 71.3973H60.1343V77.0209H65.1449V71.3973Z" fill="white" fill-opacity="0.3"/>
<path d="M65.1449 65.5361H60.1343V71.1597H65.1449V65.5361Z" fill="white" fill-opacity="0.3"/>
<path d="M54.6528 59.673H49.6421V65.3003H54.6528V59.673Z" fill="white" fill-opacity="0.3"/>
<path d="M117.606 88.981H112.595V94.6083H117.606V88.981Z" fill="white" fill-opacity="0.3"/>
<path d="M107.114 85.3422H102.103V88.7472H107.114V85.3422Z" fill="white" fill-opacity="0.3"/>
<path d="M59.8988 77.2567H54.8882V82.884H59.8988V77.2567Z" fill="white" fill-opacity="0.3"/>
<path d="M117.606 85.3422H112.595V88.7472H117.606V85.3422Z" fill="white" fill-opacity="0.3"/>
<path d="M59.8988 71.3973H54.8882V77.0209H59.8988V71.3973Z" fill="white" fill-opacity="0.3"/>
<path d="M63.9564 82.884L65.1449 78.7966V77.2567H60.1343V82.884H63.9564Z" fill="white" fill-opacity="0.3"/>
<path d="M112.36 85.3422H107.349V88.7472H112.36V85.3422Z" fill="white" fill-opacity="0.3"/>
<path d="M54.6528 65.5361H49.6421V71.1597H54.6528V65.5361Z" fill="white" fill-opacity="0.3"/>
<path d="M101.866 88.7472V85.3422H100.573L99.369 88.7472H101.866Z" fill="white" fill-opacity="0.3"/>
<path d="M59.8988 65.5361H54.8882V71.1597H59.8988V65.5361Z" fill="white" fill-opacity="0.3"/>
<path d="M44.1624 59.673H39.2676V65.3003H44.1624V59.673Z" fill="white" fill-opacity="0.3"/>
<path d="M93.838 82.884H96.6215V77.2567H91.6109V78.7871L93.838 82.884Z" fill="white" fill-opacity="0.3"/>
<path d="M122.734 85.3422H117.841V88.7472H122.734V85.3422Z" fill="white" fill-opacity="0.3"/>
<path d="M91.3773 77.2567H90.7792L91.3773 78.3555V77.2567Z" fill="white" fill-opacity="0.3"/>
<path d="M44.1624 65.5361H39.2676V71.1597H44.1624V65.5361Z" fill="white" fill-opacity="0.3"/>
<path d="M96.6215 88.2604V83.1198H93.9672L94.2463 83.6369L96.6215 88.2604Z" fill="white" fill-opacity="0.3"/>
<path d="M96.8703 88.7471H96.9253L98.9152 83.1198H96.8551V88.7167L96.8703 88.7471Z" fill="white" fill-opacity="0.3"/>
<path d="M44.1624 77.2567H39.2676V82.884H44.1624V77.2567Z" fill="white" fill-opacity="0.3"/>
<path d="M73.3131 65.3003L74.7713 59.673H70.6284V65.3003H73.3131Z" fill="white" fill-opacity="0.3"/>
<path d="M71.7334 71.3954H70.6284V75.6635L71.7334 71.3954Z" fill="white" fill-opacity="0.3"/>
<path d="M71.7942 71.1597L73.2524 65.5361H70.6284V71.1597H71.7942Z" fill="white" fill-opacity="0.3"/>
<path d="M65.593 77.2567H65.3804V77.9867L65.593 77.2567Z" fill="white" fill-opacity="0.3"/>
<path d="M80.8851 71.1597V65.5361H77.7447L79.1061 71.1597H80.8851Z" fill="white" fill-opacity="0.3"/>
<path d="M80.8851 65.3003V59.673H76.3245L77.6877 65.3003H80.8851Z" fill="white" fill-opacity="0.3"/>
<path d="M80.8851 77.0209V71.3954H79.1668L80.5263 77.0209H80.8851Z" fill="white" fill-opacity="0.3"/>
<path d="M80.8851 77.2567H80.5851L80.8851 78.4962V77.2567Z" fill="white" fill-opacity="0.3"/>
<path d="M44.1624 71.3973H39.2676V77.0209H44.1624V71.3973Z" fill="white" fill-opacity="0.3"/>
<path d="M49.4085 59.673H44.396V65.3003H49.4085V59.673Z" fill="white" fill-opacity="0.3"/>
<path d="M65.6614 77.0209L65.7981 76.5513L66.119 77.0209H70.2752L70.391 76.5685V71.3954H65.3804V77.0209H65.6614Z" fill="white" fill-opacity="0.3"/>
<path d="M54.6528 71.3973H49.6421V77.0209H54.6528V71.3973Z" fill="white" fill-opacity="0.3"/>
<path d="M54.6528 77.2567H49.6421V82.884H54.6528V77.2567Z" fill="white" fill-opacity="0.3"/>
<path d="M62.4203 88.981H61.6855L62.0691 90.4163L62.4203 88.981Z" fill="white" fill-opacity="0.3"/>
<path d="M61.6229 88.7471H62.4773L63.6469 83.9334L63.8861 83.1198H60.1343V83.1863L61.6229 88.7471Z" fill="white" fill-opacity="0.3"/>
<path d="M91.214 82.884L90.9786 82.4506L90.8039 82.884H91.214Z" fill="white" fill-opacity="0.3"/>
<path d="M67.3227 82.884L66.6449 81.8878L66.3544 82.884H67.3227Z" fill="white" fill-opacity="0.3"/>
<path d="M81.9465 82.884H84.7547L86.1293 77.9316V77.2567H81.1168V79.4582L81.9465 82.884Z" fill="white" fill-opacity="0.3"/>
<path d="M90.6217 77.2567H86.847L88.9166 81.4068L90.6217 77.2567Z" fill="white" fill-opacity="0.3"/>
<path d="M83.2832 87.846L84.487 83.8555L84.6901 83.1198H82.0054L82.199 83.9182L83.2832 87.846Z" fill="white" fill-opacity="0.3"/>
<path d="M86.3819 77.0209L86.5072 76.5742L86.7274 77.0209H91.3773V71.3954H86.3667V77.0209H86.3819Z" fill="white" fill-opacity="0.3"/>
<path d="M49.4085 71.3973H44.396V77.0209H49.4085V71.3973Z" fill="white" fill-opacity="0.3"/>
<path d="M49.4085 77.2567H44.396V82.884H49.4085V77.2567Z" fill="white" fill-opacity="0.3"/>
<path d="M49.4085 65.5361H44.396V71.1597H49.4085V65.5361Z" fill="white" fill-opacity="0.3"/>
<path d="M70.2107 77.2567H66.2804L69.1284 81.4411L70.2107 77.2567Z" fill="white" fill-opacity="0.3"/>
<path d="M60.8672 94.8441H60.1343V100.468H65.1449V94.8441H63.3621L62.1716 99.7262L60.8672 94.8441Z" fill="white" fill-opacity="0.3"/>
<path d="M54.6528 94.8441H49.6421V100.468H54.6528V94.8441Z" fill="white" fill-opacity="0.3"/>
<path d="M44.1624 94.8441H39.2676V100.468H44.1624V94.8441Z" fill="white" fill-opacity="0.3"/>
<path d="M49.4085 88.981H44.396V94.6083H49.4085V88.981Z" fill="white" fill-opacity="0.3"/>
<path d="M54.6528 88.981H49.6421V94.6083H54.6528V88.981Z" fill="white" fill-opacity="0.3"/>
<path d="M49.4085 94.8441H44.396V100.468H49.4085V94.8441Z" fill="white" fill-opacity="0.3"/>
<path d="M44.1624 88.981H39.2676V94.6083H44.1624V88.981Z" fill="white" fill-opacity="0.3"/>
<path d="M75.8726 83.1198V88.7471H80.8851V87.8156L79.9661 84.4962L79.6358 83.1198H75.8726Z" fill="white" fill-opacity="0.3"/>
<path d="M59.8988 94.8441H54.8882V100.468H59.8988V94.8441Z" fill="white" fill-opacity="0.3"/>
<path d="M75.639 94.8441H70.6284V100.468H75.639V94.8441Z" fill="white" fill-opacity="0.3"/>
<path d="M75.8726 77.0209H78.1567L76.7934 71.3954H75.8726V77.0209Z" fill="white" fill-opacity="0.3"/>
<path d="M76.7365 71.1597L75.8726 67.5931V71.1597H76.7365Z" fill="white" fill-opacity="0.3"/>
<path d="M70.391 88.981H65.3804V94.6083H70.391V88.981Z" fill="white" fill-opacity="0.3"/>
<path d="M75.8726 82.884H79.575L78.2137 77.2567H75.8726V82.884Z" fill="white" fill-opacity="0.3"/>
<path d="M70.391 94.8441H65.3804V100.468H70.391V94.8441Z" fill="white" fill-opacity="0.3"/>
<path d="M101.866 94.6083V88.981H99.2854L97.2956 94.6083H101.866Z" fill="white" fill-opacity="0.3"/>
<path d="M91.3773 100.703H86.3667V106.202H91.3773V100.703Z" fill="white" fill-opacity="0.3"/>
<path d="M86.1293 100.703H81.1168V106.202H86.1293V100.703Z" fill="white" fill-opacity="0.3"/>
<path d="M96.6234 100.703H91.6109V106.202H96.6234V100.703Z" fill="white" fill-opacity="0.3"/>
<path d="M80.8832 100.703H75.8726V106.202H80.8832V100.703Z" fill="white" fill-opacity="0.3"/>
<path d="M101.866 100.703H96.8551V106.202H101.866V100.703Z" fill="white" fill-opacity="0.3"/>
<path d="M44.1624 100.703H39.2676V106.202H44.1624V100.703Z" fill="white" fill-opacity="0.3"/>
<path d="M107.114 100.703H102.103V106.202H107.114V100.703Z" fill="white" fill-opacity="0.3"/>
<path d="M54.6528 100.703H49.6421V106.202H54.6528V100.703Z" fill="white" fill-opacity="0.3"/>
<path d="M59.8988 100.703H54.8882V106.202H59.8988V100.703Z" fill="white" fill-opacity="0.3"/>
<path d="M75.639 100.703H70.6284V106.202H75.639V100.703Z" fill="white" fill-opacity="0.3"/>
<path d="M49.4085 100.703H44.396V106.202H49.4085V100.703Z" fill="white" fill-opacity="0.3"/>
<path d="M75.639 88.981H70.6284V94.6083H75.639V88.981Z" fill="white" fill-opacity="0.3"/>
<path d="M112.36 100.703H107.349V106.202H112.36V100.703Z" fill="white" fill-opacity="0.3"/>
<path d="M65.1449 100.703H60.1343V106.202H65.1449V100.703Z" fill="white" fill-opacity="0.3"/>
<path d="M54.6528 85.3422H49.6421V88.7472H54.6528V85.3422Z" fill="white" fill-opacity="0.3"/>
<path d="M49.4085 85.3422H44.396V88.7472H49.4085V85.3422Z" fill="white" fill-opacity="0.3"/>
<path d="M80.8832 94.8441H75.8726V100.468H80.8832V94.8441Z" fill="white" fill-opacity="0.3"/>
<path d="M44.1624 85.3422H39.2676V88.7472H44.1624V85.3422Z" fill="white" fill-opacity="0.3"/>
<path d="M54.8882 88.7472H59.2362L58.3267 85.3422H54.8882V88.7472Z" fill="white" fill-opacity="0.3"/>
<path d="M54.8882 94.6083H59.8988V91.2243L59.2989 88.981H54.8882V94.6083Z" fill="white" fill-opacity="0.3"/>
<path d="M107.114 94.8441H102.103V100.468H107.114V94.8441Z" fill="white" fill-opacity="0.3"/>
<path d="M112.36 88.981H107.349V94.6083H112.36V88.981Z" fill="white" fill-opacity="0.3"/>
<path d="M117.606 94.8441H112.595V100.468H117.606V94.8441Z" fill="white" fill-opacity="0.3"/>
<path d="M122.734 94.8441H117.841V100.468H122.734V94.8441Z" fill="white" fill-opacity="0.3"/>
<path d="M112.36 94.8441H107.349V100.468H112.36V94.8441Z" fill="white" fill-opacity="0.3"/>
<path d="M122.734 88.981H117.841V94.6083H122.734V88.981Z" fill="white" fill-opacity="0.3"/>
<path d="M107.114 88.981H102.103V94.6083H107.114V88.981Z" fill="white" fill-opacity="0.3"/>
<path d="M75.6371 82.884V77.2567H72.5935L71.1353 82.884H75.6371Z" fill="white" fill-opacity="0.3"/>
<path d="M66.2861 83.1198L65.874 84.5285L65.3804 86.5475V88.7471H70.391V85.749L70.0834 86.9391L67.4841 83.1198H66.2861Z" fill="white" fill-opacity="0.3"/>
<path d="M101.866 94.8441H96.8551V100.468H101.866V94.8441Z" fill="white" fill-opacity="0.3"/>
<path d="M75.6371 77.0209V71.3954H74.1144L72.6562 77.0209H75.6371Z" fill="white" fill-opacity="0.3"/>
<path d="M75.6371 71.1597V66.6236L75.5004 66.0494L74.1732 71.1597H75.6371Z" fill="white" fill-opacity="0.3"/>
<path d="M80.8832 88.981H75.8726V94.6083H80.8832V88.981Z" fill="white" fill-opacity="0.3"/>
<path d="M70.6284 88.7471H75.6371V83.1198H71.0727L70.6284 84.8441V88.7471Z" fill="white" fill-opacity="0.3"/>
<path d="M96.6234 94.8441H91.6109V100.468H96.6234V94.8441Z" fill="white" fill-opacity="0.3"/>
<path d="M60.8045 94.6083L60.1343 92.1064V94.6083H60.8045Z" fill="white" fill-opacity="0.3"/>
<path d="M91.3773 88.981H86.3667V94.6083H91.3773V88.981Z" fill="white" fill-opacity="0.3"/>
<path d="M91.3773 94.8441H86.3667V100.468H91.3773V94.8441Z" fill="white" fill-opacity="0.3"/>
<path d="M65.1449 94.6083V88.981H64.7899L63.419 94.6083H65.1449Z" fill="white" fill-opacity="0.3"/>
<path d="M65.1449 87.5171L64.8468 88.7471H65.1449V87.5171Z" fill="white" fill-opacity="0.3"/>
<path d="M70.391 100.703H65.3804V106.202H70.391V100.703Z" fill="white" fill-opacity="0.3"/>
<path d="M86.1293 59.673H81.1168V65.3003H86.1293V59.673Z" fill="white" fill-opacity="0.3"/>
<path d="M91.3773 65.5361H86.3667V71.1597H91.3773V65.5361Z" fill="white" fill-opacity="0.3"/>
<path d="M96.6234 71.3973H91.6109V77.0209H96.6234V71.3973Z" fill="white" fill-opacity="0.3"/>
<path d="M91.3773 59.673H86.3667V65.3003H91.3773V59.673Z" fill="white" fill-opacity="0.3"/>
<path d="M86.1293 65.5361H81.1168V71.1597H86.1293V65.5361Z" fill="white" fill-opacity="0.3"/>
<path d="M86.1293 71.3973H81.1168V77.0209H86.1293V71.3973Z" fill="white" fill-opacity="0.3"/>
<path d="M96.6234 65.5361H91.6109V71.1597H96.6234V65.5361Z" fill="white" fill-opacity="0.3"/>
<path d="M102.344 59.7091C103.307 59.7105 104.252 59.9626 105.088 60.4406C105.924 60.9185 106.621 61.606 107.112 62.4353V59.673H102.113V59.7319C102.183 59.73 102.261 59.7091 102.344 59.7091Z" fill="white" fill-opacity="0.3"/>
<path d="M117.606 63.1083V59.673H112.595V59.7205C113.668 59.7419 114.711 60.073 115.6 60.674C116.489 61.275 117.185 62.1203 117.606 63.1083Z" fill="white" fill-opacity="0.3"/>
<path d="M76.2675 59.4354H80.8851V53.9373H75.8726V57.8042L76.2675 59.4354Z" fill="white" fill-opacity="0.3"/>
<path d="M96.6234 59.673H91.6109V65.3003H96.6234V59.673Z" fill="white" fill-opacity="0.3"/>
<path d="M101.866 59.7566V59.673H96.8551V64.5C97.0327 63.259 97.6245 62.1147 98.5343 61.2534C99.4441 60.3922 100.618 59.8646 101.866 59.7566Z" fill="white" fill-opacity="0.3"/>
<path d="M54.6528 53.9373H49.6421V59.4354H54.6528V53.9373Z" fill="white" fill-opacity="0.3"/>
<path d="M70.391 59.673H65.3804V65.3003H70.391V59.673Z" fill="white" fill-opacity="0.3"/>
<path d="M91.6109 94.6083H96.6215V93.3099L94.4001 88.981H91.6109V94.6083Z" fill="white" fill-opacity="0.3"/>
<path d="M44.1624 53.9373H39.2676V59.4354H44.1624V53.9373Z" fill="white" fill-opacity="0.3"/>
<path d="M70.391 65.5361H65.3804V71.1597H70.391V65.5361Z" fill="white" fill-opacity="0.3"/>
<path d="M65.1449 59.673H60.1343V65.3003H65.1449V59.673Z" fill="white" fill-opacity="0.3"/>
<path d="M97.2899 94.6084L96.8551 93.7662V94.6084H97.2899Z" fill="white" fill-opacity="0.3"/>
<path d="M65.1449 53.9373H60.1343V59.4354H65.1449V53.9373Z" fill="white" fill-opacity="0.3"/>
<path d="M74.834 59.4354L75.5745 56.576L75.6371 56.8346V53.9373H70.6284V59.4354H74.834Z" fill="white" fill-opacity="0.3"/>
<path d="M70.391 53.9373H65.3804V59.4354H70.391V53.9373Z" fill="white" fill-opacity="0.3"/>
<path d="M59.8988 53.9373H54.8882V59.4354H59.8988V53.9373Z" fill="white" fill-opacity="0.3"/>
<path d="M49.4085 53.9373H44.396V59.4354H49.4085V53.9373Z" fill="white" fill-opacity="0.3"/>
<path d="M112.595 77.0209H117.606V71.3954H114.226L112.595 73.019V77.0209Z" fill="white" fill-opacity="0.3"/>
<path d="M101.866 53.9373H96.8551V59.4354H101.866V53.9373Z" fill="white" fill-opacity="0.3"/>
<path d="M101.866 77.2567H96.8551V82.884H101.866V77.2567Z" fill="white" fill-opacity="0.3"/>
<path d="M86.1293 86.3878L85.4192 88.7471H86.1293V86.3878Z" fill="white" fill-opacity="0.3"/>
<path d="M91.3773 53.9373H86.3667V59.4354H91.3773V53.9373Z" fill="white" fill-opacity="0.3"/>
<path d="M86.1293 53.9373H81.1168V59.4354H86.1293V53.9373Z" fill="white" fill-opacity="0.3"/>
<path d="M117.606 77.2567H112.595V82.884H117.606V77.2567Z" fill="white" fill-opacity="0.3"/>
<path d="M117.606 53.9373H112.595V59.4354H117.606V53.9373Z" fill="white" fill-opacity="0.3"/>
<path d="M122.734 77.2567H117.841V82.884H122.734V77.2567Z" fill="white" fill-opacity="0.3"/>
<path d="M89.1236 86.9753L87.2002 83.1198H87.0806L86.697 84.5L86.3667 85.6045V88.7471H91.3773V83.1787L91.3432 83.1198H90.7052L89.1236 86.9753Z" fill="white" fill-opacity="0.3"/>
<path d="M91.6109 88.7471H94.2804L92.2128 84.7167L91.6109 83.6083V88.7471Z" fill="white" fill-opacity="0.3"/>
<path d="M86.1293 94.6083V88.981H85.3471L83.6534 94.6083H86.1293Z" fill="white" fill-opacity="0.3"/>
<path d="M81.1395 88.7471L81.1168 88.6578V88.7471H81.1395Z" fill="white" fill-opacity="0.3"/>
<path d="M107.114 53.9373H102.103V59.4354H107.114V53.9373Z" fill="white" fill-opacity="0.3"/>
<path d="M81.1168 94.6083H82.7629L81.206 88.981H81.1168V94.6083Z" fill="white" fill-opacity="0.3"/>
<path d="M82.8294 94.8441H81.1168V100.468H86.1293V94.8441H83.5813L83.1863 96.1483L82.8294 94.8441Z" fill="white" fill-opacity="0.3"/>
<path d="M117.606 100.703H112.595V106.202H117.606V100.703Z" fill="white" fill-opacity="0.3"/>
<path d="M96.6234 53.9373H91.6109V59.4354H96.6234V53.9373Z" fill="white" fill-opacity="0.3"/>
<path d="M106.276 77.0209L102.103 72.8688V77.0209H106.276Z" fill="white" fill-opacity="0.3"/>
<path d="M122.734 100.703H117.841V106.202H122.734V100.703Z" fill="white" fill-opacity="0.3"/>
<path d="M122.734 53.9373H117.841V59.4354H122.734V53.9373Z" fill="white" fill-opacity="0.3"/>
<path d="M98.1253 68.9126C97.9316 68.6837 97.7558 68.4402 97.5994 68.1844C97.2254 67.5786 96.9726 66.9058 96.8551 66.2034V71.1578H100.385L98.7462 69.5304C98.5567 69.3671 98.3785 69.1911 98.2126 69.0038L98.1253 68.9126Z" fill="white" fill-opacity="0.3"/>
<path d="M112.36 53.9373H107.349V59.4354H112.36V53.9373Z" fill="white" fill-opacity="0.3"/>
<path d="M122.734 65.3003V59.673H117.841V63.8555C117.971 64.3199 118.041 64.7991 118.048 65.2813V65.3003H122.734Z" fill="white" fill-opacity="0.3"/>
<path d="M116.602 69.0095L116.412 69.2148L114.458 71.1597H117.606V67.4011C117.5 67.6741 117.373 67.9385 117.226 68.192H117.251C117.074 68.4816 116.873 68.7551 116.649 69.0095H116.602Z" fill="white" fill-opacity="0.3"/>
<path d="M122.734 71.3973H117.841V77.0209H122.734V71.3973Z" fill="white" fill-opacity="0.3"/>
<path d="M107.412 62.9867C107.846 62.0296 108.541 61.2149 109.418 60.6364C110.294 60.0578 111.316 59.739 112.366 59.7167V59.673H107.349V62.8707C107.37 62.9106 107.393 62.9467 107.412 62.9867Z" fill="white" fill-opacity="0.3"/>
<path d="M96.8551 77.0209H101.866V72.635L100.62 71.3954H96.8551V77.0209Z" fill="white" fill-opacity="0.3"/>
<path d="M107.427 78.0532L107.347 78.0209V82.884H112.36V77.2567H108.338L107.615 77.9753L107.427 78.0532Z" fill="white" fill-opacity="0.3"/>
<path d="M102.103 82.884H107.112V77.8536L106.516 77.2567H102.103V82.884Z" fill="white" fill-opacity="0.3"/>
<path d="M117.841 71.1597H122.734V65.5361H118.027C118.006 65.9341 117.943 66.3286 117.838 66.7129L117.841 71.1597Z" fill="white" fill-opacity="0.3"/>
<path d="M112.36 73.2548L108.574 77.0209H112.36V73.2548Z" fill="white" fill-opacity="0.3"/>
<path d="M84.6901 83.1198L84.7547 82.884H81.9465L82.0054 83.1198H84.6901Z" fill="#113BB3"/>
<path d="M70.2106 77.2567L70.2752 77.0209H66.119L66.2803 77.2567H70.2106Z" fill="#113BB3"/>
<path d="M96.9253 88.7471H96.8703L96.9044 88.808L96.9253 88.7471Z" fill="#113BB3"/>
<path d="M75.8726 57.8042V53.9373H75.6371V56.8346L75.8726 57.8042Z" fill="#113BB3"/>
<path d="M96.8551 88.7167V83.1198H98.9152L98.9455 83.0361H122.968V53.9373H122.734V59.4354H117.841V53.9373H117.606V59.4354H112.595V53.9373H112.366V59.4354H107.349V53.9373H107.112V59.4354H102.113V53.9373H101.866V59.4354H96.8551V53.9373H96.6215V59.4354H91.6109V53.9373H91.3773V59.4354H86.3667V53.9373H86.1293V59.4354H81.1168V53.9373H80.8851V59.4354H76.2675L76.3245 59.673H80.8813V65.3004H77.6877L77.7447 65.5361H80.8851V71.1597H79.1061L79.1668 71.3973H80.8757V77.0209H80.5168L80.5757 77.2566H80.8757V78.4962L81.1073 79.4601V77.2566H86.1199V77.9316L86.3724 77.0209H86.3572V71.3973H91.3679V77.0209H86.7331L86.8528 77.2566H90.6255L90.6957 77.0931L90.7849 77.2566H91.383V78.3555L91.6166 78.7871V77.2566H96.6272V82.884H93.8381L93.9672 83.1198H96.6253V88.2528L96.8551 88.7167ZM101.866 82.884H96.8551V77.2566H101.866V82.884ZM117.606 82.884H112.595V77.2566H117.606V82.884ZM122.732 82.884H117.841V77.2566H122.734L122.732 82.884ZM122.732 77.0209H117.841V71.3973H122.734L122.732 77.0209ZM96.8551 64.5V59.673H101.866V59.7566C101.947 59.7566 102.021 59.7376 102.103 59.7319V59.673H107.112V62.4354C107.197 62.5779 107.277 62.7224 107.349 62.8707V59.673H112.366V59.7167C112.407 59.7167 112.445 59.7167 112.487 59.7167C112.529 59.7167 112.561 59.7167 112.601 59.7281V59.673H117.606V63.1084C117.702 63.3561 117.781 63.6102 117.841 63.8688V59.6863H122.734V65.3004H118.048C118.048 65.3802 118.029 65.4563 118.027 65.5361H122.734V71.1597H117.841V66.7129C117.8 66.8669 117.769 67.0247 117.718 67.173C117.689 67.2528 117.638 67.3232 117.606 67.4011V71.1597H114.465L114.226 71.3973H117.606V77.0209H112.595V73.019L112.366 73.2547V77.0209H108.568L108.333 77.2566H112.366V82.884H107.349V78.0209L107.235 77.9753L107.112 77.8536V82.884H102.113V77.2566H106.525L106.286 77.0209H102.113V72.8707L101.875 72.635V77.0209H96.8551V71.3973H100.62L100.385 71.1597H96.8551V66.2053C96.8047 65.9012 96.7793 65.5934 96.7791 65.2852C96.7869 65.022 96.8123 64.7597 96.8551 64.5ZM86.1293 77.0209H81.1168V71.3973H86.1293V77.0209ZM86.1293 71.1597H81.1168V65.5361H86.1293V71.1597ZM86.1293 65.3004H81.1168V59.673H86.1293V65.3004ZM91.3773 71.1597H86.3667V65.5361H91.3773V71.1597ZM91.3773 65.3004H86.3667V59.673H91.3773V65.3004ZM91.6109 59.673H96.6215V65.3004H91.6109V59.673ZM91.6109 65.5361H96.6215V71.1597H91.6109V65.5361ZM91.6109 77.0209V71.3973H96.6215V77.0209H91.6109Z" fill="#113BB3"/>
<path d="M74.7713 59.673L74.834 59.4354H70.6284V53.9373H70.391V59.4354H65.3804V53.9373H65.1449V59.4354H60.1343V53.9373H59.8988V59.4354H54.8882V53.9373H54.6451V59.4354H49.6421V53.9373H49.4085V59.4354H44.3922V53.9373H44.1624V59.4354H39.2657V53.9373H39.0322V83.0361H60.0963L60.1343 83.1863V83.1198H63.8861L63.9564 82.884H60.1343V77.2566H65.1449V78.7985L65.3804 77.9886V77.2586H65.593L65.6614 77.0228H65.3804V71.3973H70.391V76.5684L70.6284 75.6635V71.3973H71.7334L71.7942 71.1597H70.6284V65.5361H73.2524L73.3131 65.3004H70.6284V59.673H74.7713ZM44.1624 82.884H39.2657V77.2566H44.1624V82.884ZM44.1624 77.0209H39.2657V71.3973H44.1624V77.0209ZM44.1624 71.1597H39.2657V65.5361H44.1624V71.1597ZM44.1624 65.3004H39.2657V59.673H44.1624V65.3004ZM49.4085 82.884H44.3922V77.2566H49.4047L49.4085 82.884ZM49.4085 77.0209H44.3922V71.3973H49.4047L49.4085 77.0209ZM49.4085 71.1597H44.3922V65.5361H49.4047L49.4085 71.1597ZM49.4085 65.3004H44.3922V59.673H49.4047L49.4085 65.3004ZM54.6451 82.884H49.6421V77.2566H54.6451V82.884ZM54.6451 77.0209H49.6421V71.3973H54.6451V77.0209ZM54.6451 71.1597H49.6421V65.5361H54.6451V71.1597ZM54.6451 65.3004H49.6421V59.673H54.6451V65.3004ZM59.8912 82.884H54.8882V77.2566H59.8988L59.8912 82.884ZM59.8912 77.0209H54.8882V71.3973H59.8988L59.8912 77.0209ZM59.8912 71.1597H54.8882V65.5361H59.8988L59.8912 71.1597ZM59.8912 65.3004H54.8882V59.673H59.8988L59.8912 65.3004ZM65.1373 77.0209H60.1343V71.3973H65.1449L65.1373 77.0209ZM65.1373 71.1597H60.1343V65.5361H65.1449L65.1373 71.1597ZM65.1373 65.3004H60.1343V59.673H65.1449L65.1373 65.3004ZM70.3834 71.1597H65.3804V65.5361H70.391L70.3834 71.1597ZM70.3834 65.3004H65.3804V59.673H70.391L70.3834 65.3004Z" fill="#113BB3"/>
<path d="M39.0322 85.3422V106.445H122.968V85.3422H122.734V88.7471H117.841V85.3422H117.606V88.7471H112.595V85.3422H112.366V88.7471H107.349V85.3422H107.112V88.7471H102.113V85.3422H101.866V88.7471H99.3689L99.2854 88.981H101.866V94.6084H97.2956H96.8627V93.7661L96.6291 93.3099V94.6084H91.6109V88.981H94.4001L94.2804 88.7471H91.6109V83.6141L91.3773 83.1711V88.7395H86.3667V85.6045L86.1293 86.3878V88.7471H85.4192L85.3471 88.981H86.1293V94.6084H83.661L83.5889 94.8441H86.1369V100.471H81.1244V94.8441H82.8332L82.7667 94.6084H81.1206V88.981H81.2098L81.1434 88.7471H81.1206V88.6578L80.8889 87.8156V88.7471H75.8726V83.1198H79.6358L79.575 82.884H75.8726V77.2566H78.2118L78.1567 77.0209H75.8783V71.3973H76.7991L76.7422 71.1597H75.8726V67.5931L75.6371 66.6312V71.1673H74.1732L74.1144 71.4049H75.6333V77.0285H72.6524L72.5897 77.2642H75.6276V82.8916H71.1353L71.0727 83.1274H75.6295V88.7547H70.6284V84.8441L70.391 85.749V88.7471H65.3804V86.5475L65.1449 87.5171V88.7471H64.8468L64.788 88.981H65.1449V94.6084H63.4171L63.3621 94.8441H65.1449V100.471H60.1343V94.8441H60.8672L60.8045 94.6084H60.1343V92.1064L59.8988 91.2243V94.6084H54.8882V88.981H59.2989L59.2343 88.7471H54.8882V85.3422H54.6451V88.7471H49.6421V85.3422H49.4085V88.7471H44.3922V85.3422H44.1624V88.7471H39.2657V85.3422H39.0322ZM117.841 88.981H122.734V94.6084H117.841V88.981ZM117.841 94.8441H122.734V100.471H117.841V94.8441ZM117.841 106.203V100.703H122.734V106.217H117.841V106.203ZM112.595 88.981H117.606V94.6084H112.595V88.981ZM112.595 94.8441H117.606V100.471H112.595V94.8441ZM112.595 106.203V100.703H117.606V106.217H112.595V106.203ZM107.349 88.981H112.366V94.6084H107.349V88.981ZM107.349 94.8441H112.366V100.471H107.349V94.8441ZM107.349 106.203V100.703H112.366V106.217H107.349V106.203ZM102.113 88.981H107.121V94.6084H102.113V88.981ZM102.113 94.8441H107.121V100.471H102.113V94.8441ZM102.113 106.203V100.703H107.121V106.217H102.113V106.203ZM96.8551 94.8441H101.866V100.471H96.8551V94.8441ZM96.8551 106.203V100.703H101.866V106.217H96.8551V106.203ZM91.6109 94.8441H96.6215V100.471H91.6109V94.8441ZM91.6109 106.203V100.703H96.6215V106.217H91.6109V106.203ZM86.3667 88.981H91.3773V94.6084H86.3667V88.981ZM86.3667 94.8441H91.3773V100.471H86.3667V94.8441ZM86.3667 106.203V100.703H91.3773V106.217H86.3667V106.203ZM81.1168 106.203V100.703H86.1293V106.217H81.1168V106.203ZM75.8726 88.981H80.8851V94.6084H75.8726V88.981ZM75.8726 94.8441H80.8851V100.471H75.8726V94.8441ZM75.8726 106.203V100.703H80.8851V106.217H75.8726V106.203ZM70.6284 88.981H75.6371V94.6084H70.6284V88.981ZM70.6284 94.8441H75.6371V100.471H70.6284V94.8441ZM70.6284 106.203V100.703H75.6371V106.217H70.6284V106.203ZM65.3804 88.981H70.391V94.6084H65.3804V88.981ZM65.3804 94.8441H70.391V100.471H65.3804V94.8441ZM65.3804 106.203V100.703H70.391V106.217H65.3804V106.203ZM60.1343 106.203V100.703H65.1449V106.217H60.1343V106.203ZM54.8882 94.8441H59.8988V100.471H54.8882V94.8441ZM54.8882 106.203V100.703H59.8988V106.217H54.8882V106.203ZM49.6421 88.981H54.6451V94.6084H49.6421V88.981ZM49.6421 94.8441H54.6451V100.471H49.6421V94.8441ZM49.6421 106.203V100.703H54.6451V106.217H49.6421V106.203ZM44.3922 88.981H49.4047V94.6084H44.3922V88.981ZM44.3922 94.8441H49.4047V100.471H44.3922V94.8441ZM44.3922 106.203V100.703H49.4047V106.217H44.3922V106.203ZM44.1586 106.203V106.215H39.2657V100.702H44.1624L44.1586 106.203ZM44.1586 100.468H39.2657V94.8441H44.1624L44.1586 100.468ZM44.1586 88.981V94.6084H39.2657V88.981H44.1586Z" fill="#113BB3"/>
<path d="M90.7052 83.1198H91.3432L91.214 82.884H90.8039L90.7052 83.1198Z" fill="#113BB3"/>
<path d="M62.4203 88.981L62.4773 88.7471H61.6229L61.6855 88.981H62.4203Z" fill="#113BB3"/>
<path d="M66.286 83.1198H67.4841L67.3227 82.884H66.3544L66.286 83.1198Z" fill="#113BB3"/>
<path d="M87.2002 83.1197L87.1223 82.9677L87.0806 83.1197H87.2002Z" fill="#113BB3"/>
<path d="M96.9253 88.7472L96.9044 88.808L96.8703 88.7472L96.8551 88.7167L96.6215 88.2605L94.2463 83.6369L93.9672 83.1198L93.8381 82.884L91.6109 78.7871L91.3773 78.3555L90.7792 77.2567L90.69 77.0932L90.6217 77.2567L88.9166 81.4068L86.847 77.2567L86.7274 77.0209L86.5072 76.5741L86.3819 77.0209L86.1293 77.9316L84.7547 82.884L84.6901 83.1198L84.487 83.8555L83.2832 87.846L82.199 83.9183L82.0054 83.1198L81.9465 82.884L81.1168 79.4582L80.8851 78.4962L80.5851 77.2567L80.5263 77.0209L79.1668 71.3954L79.1061 71.1597L77.7447 65.5361L77.6877 65.3004L76.3245 59.673L76.2675 59.4354L75.8726 57.8042L75.6371 56.8346L75.5745 56.576L74.834 59.4354L74.7713 59.673L73.3131 65.3004L73.2524 65.5361L71.7942 71.1597L71.7334 71.3954L70.6284 75.6635L70.391 76.5684L70.2752 77.0209L70.2107 77.2567L69.1284 81.4411L66.2804 77.2567L66.119 77.0209L65.7981 76.5513L65.6614 77.0209L65.593 77.2567L65.3804 77.9867L65.1449 78.7966L63.9564 82.884L63.8861 83.1198L63.6469 83.9335L62.4773 88.7472L62.4203 88.981L62.0691 90.4164L61.6855 88.981L61.6229 88.7472L60.1343 83.1863L60.0963 83.0361H39.0322V85.3422H39.2676H44.1624H44.396H49.4085H49.6421H54.6527H54.8882H58.3267L59.2362 88.7472L59.2989 88.981L59.8988 91.2243L60.1343 92.1065L60.8045 94.6084L60.8672 94.8441L62.1716 99.7262L63.3621 94.8441L63.419 94.6084L64.7899 88.981L64.8468 88.7472L65.1449 87.5171L65.3804 86.5475L65.874 84.5285L66.2861 83.1198L66.3544 82.884L66.6449 81.8878L67.3227 82.884L67.4841 83.1198L70.0835 86.9392L70.391 85.7491L70.6284 84.8441L71.0727 83.1198L71.1353 82.884L72.5935 77.2567L72.6562 77.0209L74.1144 71.3954L74.1732 71.1597L75.5004 66.0494L75.6371 66.6236L75.8726 67.5932L76.7365 71.1597L76.7934 71.3954L78.1567 77.0209L78.2137 77.2567L79.575 82.884L79.6358 83.1198L79.9662 84.4962L80.8851 87.8156L81.1168 88.6578L81.1396 88.7472L81.206 88.981L82.7629 94.6084L82.8294 94.8441L83.1864 96.1483L83.5813 94.8441L83.6534 94.6084L85.3471 88.981L85.4192 88.7472L86.1293 86.3878L86.3667 85.6046L86.697 84.5L87.0806 83.1198L87.1224 82.9677L87.2002 83.1198L89.1236 86.9753L90.7052 83.1198L90.8039 82.884L90.9786 82.4506L91.2141 82.884L91.3432 83.1198L91.3773 83.1787L91.6109 83.6084L92.2128 84.7167L94.2804 88.7472L94.4001 88.981L96.6215 93.3099L96.8551 93.7662L97.2899 94.6084L97.2918 94.616L97.2956 94.6084L99.2854 88.981L99.3689 88.7472L100.573 85.3422H101.866H102.103H107.112H107.347H112.36H112.595H117.606H117.841H122.734H122.968V83.0361H98.9455L98.9152 83.1198L96.9253 88.7472Z" fill="#FFFFF1"/>
<path d="M35.6923 48C35.3361 48.0022 34.9839 48.0748 34.6558 48.2134C34.3277 48.3521 34.0301 48.5541 33.78 48.808C33.53 49.0619 33.3324 49.3627 33.1985 49.6932C33.0646 50.0236 32.9972 50.3773 32.9999 50.7338V110.3C32.9972 110.657 33.0646 111.011 33.1985 111.341C33.3323 111.672 33.5299 111.973 33.7799 112.227C34.03 112.481 34.3275 112.683 34.6557 112.822C34.9838 112.961 35.336 113.034 35.6923 113.036H126.308C126.664 113.034 127.016 112.961 127.344 112.822C127.672 112.683 127.97 112.481 128.22 112.227C128.47 111.973 128.668 111.672 128.801 111.341C128.935 111.011 129.003 110.657 129 110.3V50.7338C129.003 50.3773 128.935 50.0236 128.801 49.6932C128.667 49.3627 128.47 49.0619 128.22 48.808C127.97 48.5541 127.672 48.3521 127.344 48.2134C127.016 48.0748 126.664 48.0022 126.308 48H35.6923ZM122.968 83.0361V106.449H39.0321V53.9373H122.968V83.0361Z" fill="white"/>
<path d="M117.718 67.173C117.769 67.0247 117.8 66.8669 117.841 66.7129C117.947 66.3286 118.01 65.9341 118.031 65.5361C118.031 65.4563 118.052 65.3802 118.052 65.3004V65.2852C118.045 64.8029 117.975 64.3237 117.845 63.8593C117.784 63.6007 117.706 63.3466 117.61 63.0989C117.189 62.1109 116.493 61.2655 115.604 60.6645C114.715 60.0635 113.671 59.7324 112.599 59.711C112.559 59.711 112.523 59.6996 112.485 59.6996C112.447 59.6996 112.405 59.6996 112.364 59.6996C111.315 59.723 110.294 60.0423 109.419 60.6208C108.544 61.1993 107.849 62.0134 107.416 62.9696C107.397 62.9297 107.374 62.8935 107.353 62.8536C107.281 62.7053 107.201 62.5608 107.116 62.4183C106.625 61.5889 105.928 60.9014 105.092 60.4235C104.256 59.9455 103.311 59.6934 102.348 59.692C102.264 59.692 102.187 59.7129 102.107 59.7148C102.027 59.7167 101.951 59.7338 101.87 59.7395C100.621 59.8479 99.4454 60.3769 98.5355 61.24C97.6255 62.1032 97.0345 63.2497 96.8588 64.4924C96.8161 64.7521 96.7907 65.0144 96.7829 65.2776C96.7821 65.9064 96.8887 66.5307 97.0981 67.1236C97.2289 67.4921 97.3982 67.8458 97.6031 68.1787C97.7581 68.4364 97.9327 68.6817 98.1253 68.9125L98.2126 69.0038C98.3785 69.1911 98.5567 69.3671 98.7462 69.5304L100.385 71.1578L100.62 71.3954L101.866 72.6331L102.103 72.8688L106.28 77.019L106.519 77.2548L107.116 77.8517L107.239 77.9734L107.353 78.019L107.431 78.0513L107.621 77.9734L108.344 77.2548L108.58 77.019L112.366 73.2548L112.601 73.019L114.232 71.3973L114.471 71.1597L116.425 69.2148L116.615 69.0095H116.657C116.881 68.7551 117.082 68.4816 117.258 68.192H117.234C117.38 67.9385 117.507 67.6741 117.614 67.4011C117.638 67.3232 117.682 67.2529 117.718 67.173Z" fill="#113BB3"/>
</g>
<defs>
<clipPath id="clip0_1457_314">
<rect width="96" height="75" fill="white" transform="translate(33 48)"/>
</clipPath>
</defs>
</svg>
