<svg width="160" height="160" viewBox="0 0 160 160" fill="none" xmlns="http://www.w3.org/2000/svg">
<circle cx="80" cy="80" r="80" fill="#325CF4"/>
<g clip-path="url(#clip0_1457_315)">
<path fill-rule="evenodd" clip-rule="evenodd" d="M111.449 50.823L82.6661 42.3617C82.2051 42.2355 81.7136 42.2781 81.2816 42.4817C80.8496 42.6852 80.506 43.0362 80.3135 43.4704C80.2236 43.6727 80.1789 43.8919 80.1825 44.1129C80.1862 44.3339 80.238 44.5516 80.3345 44.7508C80.431 44.9501 80.5699 45.1263 80.7416 45.2672C80.9134 45.4082 81.1138 45.5106 81.3293 45.5675L111.485 54.4298C111.398 55.6683 111.189 56.8954 110.859 58.0931L77.5589 48.3226C77.0978 48.1951 76.6058 48.2368 76.1732 48.44C75.7406 48.6432 75.3965 48.9943 75.2039 49.4289C75.116 49.6303 75.0728 49.8481 75.0772 50.0674C75.0816 50.2868 75.1335 50.5027 75.2294 50.7004C75.3252 50.8982 75.4628 51.0732 75.6329 51.2136C75.8029 51.354 76.0014 51.4565 76.2149 51.5142L109.594 61.3224C109.05 62.381 108.403 63.3844 107.662 64.3182C107.603 64.396 107.541 64.4715 107.479 64.5541L74.9922 55.0006C74.5325 54.8766 74.0431 54.92 73.6129 55.123C73.1826 55.3259 72.8399 55.675 72.6468 56.1069C72.5569 56.3095 72.5123 56.529 72.516 56.7503C72.5198 56.9716 72.5718 57.1895 72.6686 57.389C72.7653 57.5885 72.9044 57.7648 73.0764 57.9059C73.2484 58.047 73.4492 58.1495 73.6649 58.2063L104.76 67.3446C103.597 68.3513 102.363 69.2751 101.068 70.1092L75.6583 62.6434C75.1972 62.5159 74.7052 62.5575 74.2726 62.7607C73.84 62.964 73.4959 63.3151 73.3033 63.7497C73.2137 63.9515 73.1691 64.1702 73.1725 64.3907C73.1758 64.6112 73.2271 64.8284 73.3229 65.0275C73.4186 65.2265 73.5565 65.4028 73.7272 65.5442C73.8979 65.6855 74.0973 65.7888 74.3119 65.8467L96.9458 72.4964L96.6437 72.6545C95.1165 73.4423 93.5513 74.1807 91.9718 74.8836L78.5437 70.9396C78.083 70.8122 77.5913 70.8539 77.1591 71.0572C76.7269 71.2604 76.3832 71.6115 76.1911 72.0459C76.1012 72.2482 76.0565 72.4673 76.0601 72.6884C76.0638 72.9094 76.1156 73.127 76.2121 73.3263C76.3087 73.5256 76.4475 73.7017 76.6193 73.8427C76.791 73.9837 76.9914 74.0861 77.2069 74.1429L86.9598 77.0066C85.2637 77.6978 83.5677 78.37 81.8835 79.0518C76.8881 81.0686 71.8309 83.1656 67.1352 85.7864C62.8082 88.1995 58.6644 91.1505 55.6743 94.986C50.5814 101.518 50.2151 108.882 51.9159 116.105L52.0063 116.494C53.5977 116.695 54.9774 115.213 54.9631 113.192C54.9298 108.189 55.2176 103.32 58.7215 98.9112C61.576 95.3327 65.6937 92.6955 69.8256 90.5796C74.6259 88.1216 79.7593 86.1661 84.7618 84.1469C89.7001 82.1513 94.7074 80.0614 99.3484 77.4524C103.647 75.0322 107.753 72.0789 110.716 68.2528C115.983 61.4616 116.157 53.8023 114.204 46.3813L111.808 37C111.592 43.7558 111.689 45.6264 111.449 50.823Z" fill="white"/>
<path fill-rule="evenodd" clip-rule="evenodd" d="M79.783 126.975L53.3788 112.765C52.9623 112.532 52.6446 112.157 52.4838 111.711C52.3231 111.264 52.33 110.775 52.5034 110.333C52.5843 110.127 52.7091 109.941 52.8694 109.787C53.0296 109.633 53.2215 109.516 53.4319 109.442C53.6423 109.369 53.8661 109.342 54.0881 109.362C54.3101 109.383 54.525 109.451 54.718 109.562L82.3759 124.448C83.1961 123.512 83.9212 122.497 84.5405 121.42L54.0234 104.988C53.6052 104.755 53.2855 104.381 53.1234 103.934C52.9612 103.487 52.9674 102.996 53.1409 102.553C53.2218 102.347 53.3466 102.161 53.5069 102.007C53.6672 101.854 53.859 101.736 54.0694 101.663C54.2798 101.59 54.5036 101.562 54.7256 101.583C54.9476 101.603 55.1625 101.671 55.3555 101.782L85.9678 118.254C86.3392 117.125 86.5973 115.961 86.7385 114.782C86.7504 114.685 86.7623 114.586 86.7718 114.489L56.9874 98.4488C56.5711 98.2148 56.2536 97.8401 56.0929 97.3932C55.9322 96.9462 55.9389 96.4569 56.112 96.0145C56.1928 95.8084 56.3177 95.6222 56.478 95.4685C56.6382 95.3148 56.8301 95.1973 57.0405 95.124C57.2508 95.0507 57.4747 95.0234 57.6967 95.044C57.9187 95.0646 58.1336 95.1325 58.3266 95.2431L86.8313 110.597C86.7276 109.069 86.5137 107.551 86.1914 106.054L62.8938 93.5188C62.4776 93.2848 62.1601 92.9101 61.9994 92.4631C61.8386 92.0162 61.8454 91.5268 62.0184 91.0844C62.0986 90.8773 62.2232 90.6898 62.3837 90.5352C62.5442 90.3805 62.7366 90.2623 62.9477 90.1887C63.1588 90.1151 63.3835 90.0879 63.6063 90.109C63.8291 90.13 64.0445 90.1989 64.2378 90.3107L84.983 101.478C84.9497 101.371 84.9164 101.263 84.8807 101.157C84.3645 99.5269 83.7841 97.9087 83.168 96.3023L70.8603 89.6809C70.4427 89.4475 70.1242 89.0725 69.9634 88.6247C69.8026 88.177 69.8102 87.6868 69.9849 87.2442C70.0658 87.0381 70.1906 86.8519 70.3509 86.6982C70.5111 86.5445 70.703 86.4269 70.9134 86.3537C71.1238 86.2804 71.3476 86.2531 71.5696 86.2737C71.7916 86.2942 72.0065 86.3622 72.1995 86.4728L81.1318 91.2826C80.4181 89.6054 79.7045 87.9377 78.9909 86.277C76.9023 81.354 74.8162 76.3178 73.3627 71.1802C72.0235 66.4365 71.1981 61.4475 71.8189 56.6353C72.8846 48.4453 77.88 42.9798 84.2313 39.0664L84.5786 38.8517C85.8488 39.826 85.768 41.8404 84.3217 43.2558C80.7297 46.7681 77.459 50.415 76.7953 55.9937C76.2553 60.5181 77.2924 65.2783 78.6983 69.6752C80.3396 74.7775 82.5757 79.7594 84.6714 84.6966C86.7409 89.57 88.7937 94.5591 90.2139 99.659C91.5293 104.377 92.3238 109.352 91.6935 114.135C90.5731 122.627 85.2351 128.166 78.5627 132.046L70.1704 137C74.8328 132.072 76.2363 130.817 79.7711 126.975" fill="white" fill-opacity="0.6"/>
</g>
<defs>
<clipPath id="clip0_1457_315">
<rect width="64.3478" height="100" fill="white" transform="translate(51 37)"/>
</clipPath>
</defs>
</svg>
