<svg width="48" height="37" viewBox="0 0 48 37" fill="none" xmlns="http://www.w3.org/2000/svg">
<path d="M24.0097 3.48171C24.2937 2.79824 24.7099 2.17761 25.2344 1.65543C25.2599 1.62981 25.2857 1.60444 25.3116 1.57934C25.8172 1.09028 26.4105 0.700378 27.0607 0.430214C27.1461 0.394717 27.2323 0.361377 27.3192 0.330206C27.345 0.320965 27.3708 0.311915 27.3966 0.303057C27.9818 0.102668 28.5969 0 29.2171 0C29.7144 0 30.2084 0.0660042 30.6863 0.195462L30.7214 0.205084C30.9428 0.266571 31.1608 0.341721 31.3739 0.430286C31.7997 0.607228 32.2011 0.835526 32.5694 1.10939C32.7922 1.27504 33.003 1.45735 33.1998 1.65505C33.5537 1.29956 33.9528 0.99382 34.386 0.745265C34.592 0.627066 34.8057 0.521806 35.0259 0.430286C35.1114 0.39476 35.1977 0.361399 35.2846 0.330206C35.3316 0.313339 35.3788 0.297107 35.4262 0.281512C35.9921 0.0953128 36.585 0 37.1825 0C37.6856 0 38.1853 0.0675481 38.6684 0.200004L38.6993 0.20858C38.9164 0.269396 39.1301 0.343352 39.3391 0.430214C39.7623 0.606053 40.1614 0.832616 40.5278 1.10423C40.7533 1.27125 40.9664 1.45529 41.1652 1.65505C41.6897 2.17722 42.1058 2.79783 42.3898 3.48126C42.6737 4.16469 42.8199 4.89747 42.8199 5.63755C42.8199 6.37762 42.6737 7.11041 42.3898 7.79384C42.1589 8.34947 41.8407 8.86358 41.4479 9.31703C41.3578 9.42129 41.2636 9.52251 41.1653 9.62045L33.1999 17.5859L25.2344 9.62084C24.7099 9.09866 24.2937 8.47802 24.0097 7.79456C23.7257 7.11109 23.5795 6.37826 23.5795 5.63814C23.5795 4.89802 23.7257 4.16518 24.0097 3.48171Z" fill="#325CF4"/>
<path fill-rule="evenodd" clip-rule="evenodd" d="M32.6037 28.099C33.1928 28.1219 33.4654 27.9962 33.9331 27.8194L45.151 22.5473C45.151 22.5473 47.015 21.9168 47.8293 23.8416C48.0384 24.3404 48.056 24.8989 47.8788 25.41C47.7017 25.9211 47.3421 26.3489 46.8691 26.6113L46.4769 26.8329L30.3984 35.5729C29.0663 36.468 27.1785 36.7265 25.6152 36.3291L10.6198 30.7298V18.4551H17.6612C19.7934 18.4551 21.7182 19.2966 23.1092 20.6603C23.6318 21.1723 24.0775 21.7572 24.4325 22.3969C24.5503 22.6114 24.6585 22.7847 24.7561 23.0106H32.6037C34.0334 23.0106 35.1843 24.1449 35.1843 25.5544C35.1843 26.963 34.0325 28.099 32.6037 28.099L21.0904 28.0981L32.6037 28.099Z" fill="#325CF4"/>
<path d="M9.05657 16.2376V33.0969H0V16.2376H9.05657Z" fill="#325CF4"/>
</svg>
