<svg width="43" height="40" viewBox="0 0 43 40" fill="none" xmlns="http://www.w3.org/2000/svg">
<g clip-path="url(#clip0_760_495)">
<path fill-rule="evenodd" clip-rule="evenodd" d="M15.5602 9.04137C15.3353 9.0429 15.1114 9.06834 14.8923 9.11724L12.981 6.53793C12.8966 6.42069 12.8519 6.28091 12.8531 6.13793V0.689655C12.8531 0.506747 12.9279 0.331331 13.0612 0.201995C13.1944 0.0726598 13.3751 0 13.5636 0H16.4057C16.5941 0 16.7749 0.0726598 16.9081 0.201995C17.0414 0.331331 17.1162 0.506747 17.1162 0.689655V2.37241H19.3686V0.689655C19.3686 0.506747 19.4434 0.331331 19.5767 0.201995C19.7099 0.0726598 19.8907 0 20.0791 0H22.9212C23.1097 0 23.2904 0.0726598 23.4236 0.201995C23.5569 0.331331 23.6317 0.506747 23.6317 0.689655V2.37241H25.8486V0.689655C25.8486 0.506747 25.9234 0.331331 26.0567 0.201995C26.1899 0.0726598 26.3707 0 26.5591 0H29.4012C29.5897 0 29.7704 0.0726598 29.9036 0.201995C30.0369 0.331331 30.1117 0.506747 30.1117 0.689655V6.13793C30.1129 6.28091 30.0682 6.42069 29.9838 6.53793L28.1081 9.11724C27.889 9.06834 27.665 9.0429 27.4402 9.04137H15.5602ZM15.56 10.4208H27.44C28.3622 10.4208 29.1097 11.1465 29.1097 12.0415V13.9036C29.1097 14.7987 28.3622 15.5243 27.44 15.5243H15.56C14.6378 15.5243 13.8903 14.7987 13.8903 13.9036V12.0415C13.8903 11.1465 14.6378 10.4208 15.56 10.4208ZM29.5859 28.0551L26.623 16.9034H16.3772L13.4143 28.0551H29.5859ZM33.3303 33.0552H34.2895C34.4779 33.0552 34.6586 33.1279 34.7919 33.2572C34.9251 33.3865 35 33.5619 35 33.7448V39.3104C35 39.4933 34.9251 39.6687 34.7919 39.798C34.6586 39.9274 34.4779 40 34.2895 40H8.71053C8.52208 40 8.34136 39.9274 8.20811 39.798C8.07486 39.6687 8 39.4933 8 39.3104V33.7448C8 33.5619 8.07486 33.3865 8.20811 33.2572C8.34136 33.1279 8.52208 33.0552 8.71053 33.0552H9.65553V32.8414V31.0345C9.65552 30.6114 9.82822 30.2054 10.1358 29.9056C10.4434 29.6057 10.8609 29.4363 11.2968 29.4345H31.6889C32.1249 29.4363 32.5424 29.6057 32.85 29.9056C33.1576 30.2054 33.3303 30.6114 33.3303 31.0345V32.8414V33.0552Z" fill="#325CF4"/>
</g>
<defs>
<clipPath id="clip0_760_495">
<rect width="43" height="40" fill="white"/>
</clipPath>
</defs>
</svg>
