<svg width="31" height="44" viewBox="0 0 31 44" fill="none" xmlns="http://www.w3.org/2000/svg">
<path fill-rule="evenodd" clip-rule="evenodd" d="M19.7972 4.4C19.7972 6.83005 17.8273 8.8 15.3972 8.8C12.9672 8.8 10.9972 6.83005 10.9972 4.4C10.9972 1.96995 12.9672 0 15.3972 0C17.8273 0 19.7972 1.96995 19.7972 4.4ZM28.9492 19.6461C30.0052 19.8221 30.7972 20.7021 30.7972 21.7801C30.7972 23.1661 29.5212 24.2001 28.1572 23.9141C25.0772 23.2981 21.9972 21.7361 19.7972 19.9101V27.5001H26.3972C28.8172 27.5001 30.7972 29.4801 30.7972 31.9001V41.8001C30.7972 43.0101 29.8072 44.0001 28.5972 44.0001C27.3872 44.0001 26.3972 43.0101 26.3972 41.8001V33.0001H15.3972C12.9772 33.0001 10.9972 31.0201 10.9972 28.6001V15.6201C10.9972 13.3541 12.6032 11.3301 14.8472 11.0661C15.8812 10.9341 16.7832 11.1541 17.5972 11.6161H17.6192C17.6302 11.6161 17.6357 11.6216 17.6412 11.6271C17.6467 11.6326 17.6522 11.6381 17.6632 11.6381C18.1692 11.8801 18.6312 12.2101 19.0052 12.6281L21.8432 15.7741C23.7252 17.8065 26.2211 19.1665 28.9492 19.6461ZM10.9972 39.6001C13.8792 39.6001 16.3212 37.7521 17.2232 35.2001H21.7772C21.3793 37.1469 20.4614 38.9496 19.1212 40.4166C17.781 41.8836 16.0684 42.9602 14.1654 43.532C12.2624 44.1038 10.24 44.1495 8.31316 43.6641C6.3863 43.1788 4.62688 42.1805 3.22183 40.7755C1.81677 39.3704 0.81854 37.611 0.333187 35.6841C-0.152166 33.7573 -0.106519 31.7349 0.465279 29.8319C1.03708 27.9289 2.11367 26.2163 3.58069 24.8761C5.04772 23.5359 6.85038 22.6181 8.79718 22.2201V26.7741C6.24518 27.6981 4.39718 30.1181 4.39718 33.0001C4.39718 36.6521 7.34518 39.6001 10.9972 39.6001Z" fill="#325CF4"/>
</svg>
