<svg width="40" height="42" viewBox="0 0 40 42" fill="none" xmlns="http://www.w3.org/2000/svg">
<path fill-rule="evenodd" clip-rule="evenodd" d="M34.6667 17.3333H36C37.0609 17.3333 38.0783 17.7548 38.8284 18.5049C39.5786 19.2551 40 20.2725 40 21.3333V26.6667C40 27.7275 39.5786 28.7449 38.8284 29.4951C38.0783 30.2452 37.0609 30.6667 36 30.6667H34.6667V38.6667C34.6667 39.0203 34.5262 39.3594 34.2761 39.6095C34.0261 39.8595 33.687 40 33.3333 40H26.6667C27.2654 39.2146 27.676 38.3023 27.8667 37.3333H32V34.4267C31.3976 34.6397 30.7529 34.7052 30.1199 34.6179C29.4869 34.5306 28.8841 34.2928 28.3618 33.9247C27.8396 33.5565 27.4132 33.0686 27.1182 32.5017C26.8233 31.9349 26.6685 31.3056 26.6667 30.6667V17.3333C26.672 16.7058 26.8249 16.0883 27.113 15.5308C27.4011 14.9733 27.8164 14.4914 28.3252 14.1241C28.834 13.7567 29.4221 13.5143 30.0419 13.4163C30.6618 13.3183 31.296 13.3675 31.8933 13.56C31.612 10.5863 30.2318 7.82445 28.0225 5.81427C25.8132 3.80408 22.9336 2.69011 19.9467 2.69011C16.9597 2.69011 14.0801 3.80408 11.8708 5.81427C9.66151 7.82445 8.2813 10.5863 8 13.56C8.60349 13.3466 9.24938 13.2812 9.8834 13.3692C10.5174 13.4573 11.121 13.6962 11.6436 14.0659C12.1661 14.4356 12.5923 14.9253 12.8864 15.4938C13.1804 16.0624 13.3337 16.6932 13.3333 17.3333V30.6667C13.3333 31.7275 12.9119 32.7449 12.1618 33.4951C11.4116 34.2452 10.3942 34.6667 9.33333 34.6667C8.27247 34.6667 7.25505 34.2452 6.50491 33.4951C5.75476 32.7449 5.33333 31.7275 5.33333 30.6667H4C2.93913 30.6667 1.92172 30.2452 1.17157 29.4951C0.421427 28.7449 0 27.7275 0 26.6667V21.3333C0 20.2725 0.421427 19.2551 1.17157 18.5049C1.92172 17.7548 2.93913 17.3333 4 17.3333H5.33333V14.6667C5.33333 10.7768 6.87857 7.0463 9.6291 4.29577C12.3796 1.54523 16.1102 0 20 0C23.8898 0 27.6204 1.54523 30.3709 4.29577C33.1214 7.0463 34.6667 10.7768 34.6667 14.6667V17.3333ZM18.6667 34.0002H21.3334C22.3943 34.0002 23.4117 34.4216 24.1618 35.1718C24.912 35.9219 25.3334 36.9393 25.3334 38.0002C25.3334 39.061 24.912 40.0785 24.1618 40.8286C23.4117 41.5788 22.3943 42.0002 21.3334 42.0002H18.6667C17.6059 42.0002 16.5885 41.5788 15.8383 40.8286C15.0882 40.0785 14.6667 39.061 14.6667 38.0002C14.6667 36.9393 15.0882 35.9219 15.8383 35.1718C16.5885 34.4216 17.6059 34.0002 18.6667 34.0002Z" fill="#325CF4"/>
</svg>
