<svg width="34" height="40" viewBox="0 0 34 40" fill="none" xmlns="http://www.w3.org/2000/svg">
<path d="M33.9811 13.0332L31.5703 0.363567C31.5416 0.204 31.4555 0.10826 31.3694 0.0763466C31.312 0.0125198 31.1972 -0.0193936 31.025 0.0125198C30.9676 0.0125198 30.9389 0.0444332 30.8815 0.0763466L20.9512 6.68242C20.7503 6.81007 20.6642 7.12921 20.8077 7.3526C20.8651 7.44834 20.9225 7.51217 21.0086 7.54408L23.7351 8.85253L23.1898 10.4163C23.0176 10.9588 18.8561 22.7349 2.26732 22.7349C1.63592 22.7349 0.94711 22.7029 0.287003 22.671H0.200902C0.143501 22.671 0.114801 22.7029 0.0574005 22.7349C0.0287002 22.7668 0 22.8306 0 22.8944C0 22.9902 0.0574006 23.0859 0.143501 23.1178L0.200902 23.1497C3.78844 24.4901 7.51948 25.1922 11.3079 25.256C24.998 25.256 29.9057 13.9268 29.9631 13.7991L30.6232 12.2353L33.4071 13.5757C33.5219 13.6395 33.6654 13.6076 33.7228 13.5757C33.8089 13.5438 33.895 13.48 33.9524 13.3204C34.0098 13.2247 34.0098 13.1289 33.9811 13.0332ZM1.95162 40H9.09799V28.4793C6.68717 28.2878 4.30504 27.8729 1.95162 27.2027V40ZM24.8832 24.4263V40H32.0295V16.5437H32.0008C30.9676 18.3627 28.7003 21.7136 24.8832 24.4263ZM13.403 40H20.5494V26.8198C18.483 27.6814 16.1296 28.2878 13.403 28.5112V40Z" fill="#325CF4"/>
</svg>
